<svg width="604" height="328" viewBox="0 0 604 328" fill="none" xmlns="http://www.w3.org/2000/svg">
<path d="M4.296 15.296H0.744L3.336 9.248H5.664L4.296 15.296ZM9.144 15.296H5.592L8.184 9.248H10.512L9.144 15.296ZM26.9895 9.248V26H23.6295V18.872H16.4535V26H13.0935V9.248H16.4535V16.136H23.6295V9.248H26.9895ZM42.6566 19.064C42.6566 19.544 42.6246 19.976 42.5606 20.36H32.8406C32.9206 21.32 33.2566 22.072 33.8486 22.616C34.4406 23.16 35.1686 23.432 36.0326 23.432C37.2806 23.432 38.1686 22.896 38.6966 21.824H42.3206C41.9366 23.104 41.2006 24.16 40.1126 24.992C39.0246 25.808 37.6886 26.216 36.1046 26.216C34.8246 26.216 33.6726 25.936 32.6486 25.376C31.6406 24.8 30.8486 23.992 30.2726 22.952C29.7126 21.912 29.4326 20.712 29.4326 19.352C29.4326 17.976 29.7126 16.768 30.2726 15.728C30.8326 14.688 31.6166 13.888 32.6246 13.328C33.6326 12.768 34.7926 12.488 36.1046 12.488C37.3686 12.488 38.4966 12.76 39.4886 13.304C40.4966 13.848 41.2726 14.624 41.8166 15.632C42.3766 16.624 42.6566 17.768 42.6566 19.064ZM39.1766 18.104C39.1606 17.24 38.8486 16.552 38.2406 16.04C37.6326 15.512 36.8886 15.248 36.0086 15.248C35.1766 15.248 34.4726 15.504 33.8966 16.016C33.3366 16.512 32.9926 17.208 32.8646 18.104H39.1766ZM48.4691 8.24V26H45.1091V8.24H48.4691ZM55.1488 8.24V26H51.7888V8.24H55.1488ZM64.3725 26.216C63.0925 26.216 61.9405 25.936 60.9165 25.376C59.8925 24.8 59.0845 23.992 58.4925 22.952C57.9165 21.912 57.6285 20.712 57.6285 19.352C57.6285 17.992 57.9245 16.792 58.5165 15.752C59.1245 14.712 59.9485 13.912 60.9885 13.352C62.0285 12.776 63.1885 12.488 64.4685 12.488C65.7485 12.488 66.9085 12.776 67.9485 13.352C68.9885 13.912 69.8045 14.712 70.3965 15.752C71.0045 16.792 71.3085 17.992 71.3085 19.352C71.3085 20.712 70.9965 21.912 70.3725 22.952C69.7645 23.992 68.9325 24.8 67.8765 25.376C66.8365 25.936 65.6685 26.216 64.3725 26.216ZM64.3725 23.288C64.9805 23.288 65.5485 23.144 66.0765 22.856C66.6205 22.552 67.0525 22.104 67.3725 21.512C67.6925 20.92 67.8525 20.2 67.8525 19.352C67.8525 18.088 67.5165 17.12 66.8445 16.448C66.1885 15.76 65.3805 15.416 64.4205 15.416C63.4605 15.416 62.6525 15.76 61.9965 16.448C61.3565 17.12 61.0365 18.088 61.0365 19.352C61.0365 20.616 61.3485 21.592 61.9725 22.28C62.6125 22.952 63.4125 23.288 64.3725 23.288ZM101.884 9.248L97.2039 26H93.2439L90.0999 14.072L86.8119 26L82.8759 26.024L78.3639 9.248H81.9639L84.9159 22.256L88.3239 9.248H92.0679L95.2839 22.184L98.2599 9.248H101.884ZM109.982 26.216C108.702 26.216 107.55 25.936 106.526 25.376C105.502 24.8 104.694 23.992 104.102 22.952C103.526 21.912 103.238 20.712 103.238 19.352C103.238 17.992 103.534 16.792 104.126 15.752C104.734 14.712 105.558 13.912 106.598 13.352C107.638 12.776 108.798 12.488 110.078 12.488C111.358 12.488 112.518 12.776 113.558 13.352C114.598 13.912 115.414 14.712 116.006 15.752C116.614 16.792 116.918 17.992 116.918 19.352C116.918 20.712 116.606 21.912 115.982 22.952C115.374 23.992 114.542 24.8 113.486 25.376C112.446 25.936 111.278 26.216 109.982 26.216ZM109.982 23.288C110.59 23.288 111.158 23.144 111.686 22.856C112.23 22.552 112.662 22.104 112.982 21.512C113.302 20.92 113.462 20.2 113.462 19.352C113.462 18.088 113.126 17.12 112.454 16.448C111.798 15.76 110.99 15.416 110.03 15.416C109.07 15.416 108.262 15.76 107.606 16.448C106.966 17.12 106.646 18.088 106.646 19.352C106.646 20.616 106.958 21.592 107.582 22.28C108.222 22.952 109.022 23.288 109.982 23.288ZM122.743 14.768C123.175 14.064 123.735 13.512 124.423 13.112C125.127 12.712 125.927 12.512 126.823 12.512V16.04H125.935C124.879 16.04 124.079 16.288 123.535 16.784C123.007 17.28 122.743 18.144 122.743 19.376V26H119.383V12.704H122.743V14.768ZM132.446 8.24V26H129.086V8.24H132.446ZM134.901 19.304C134.901 17.96 135.165 16.768 135.693 15.728C136.237 14.688 136.973 13.888 137.901 13.328C138.829 12.768 139.861 12.488 140.997 12.488C141.861 12.488 142.685 12.68 143.469 13.064C144.253 13.432 144.877 13.928 145.341 14.552V8.24H148.749V26H145.341V24.032C144.925 24.688 144.341 25.216 143.589 25.616C142.837 26.016 141.965 26.216 140.973 26.216C139.853 26.216 138.829 25.928 137.901 25.352C136.973 24.776 136.237 23.968 135.693 22.928C135.165 21.872 134.901 20.664 134.901 19.304ZM145.365 19.352C145.365 18.536 145.205 17.84 144.885 17.264C144.565 16.672 144.133 16.224 143.589 15.92C143.045 15.6 142.461 15.44 141.837 15.44C141.213 15.44 140.637 15.592 140.109 15.896C139.581 16.2 139.149 16.648 138.813 17.24C138.493 17.816 138.333 18.504 138.333 19.304C138.333 20.104 138.493 20.808 138.813 21.416C139.149 22.008 139.581 22.464 140.109 22.784C140.653 23.104 141.229 23.264 141.837 23.264C142.461 23.264 143.045 23.112 143.589 22.808C144.133 22.488 144.565 22.04 144.885 21.464C145.205 20.872 145.365 20.168 145.365 19.352ZM156.375 8.96L155.991 20.552H153.159L152.751 8.96H156.375ZM154.647 26.168C154.039 26.168 153.535 25.984 153.135 25.616C152.751 25.232 152.559 24.76 152.559 24.2C152.559 23.64 152.751 23.176 153.135 22.808C153.535 22.424 154.039 22.232 154.647 22.232C155.239 22.232 155.727 22.424 156.111 22.808C156.495 23.176 156.687 23.64 156.687 24.2C156.687 24.76 156.495 25.232 156.111 25.616C155.727 25.984 155.239 26.168 154.647 26.168ZM161.187 9.248H164.715L162.123 15.296H159.819L161.187 9.248ZM166.035 9.248H169.563L166.971 15.296H164.667L166.035 9.248ZM192.72 9.248L186.576 26H182.496L176.352 9.248H179.952L184.56 22.568L189.144 9.248H192.72ZM193.87 19.304C193.87 17.96 194.134 16.768 194.662 15.728C195.206 14.688 195.934 13.888 196.846 13.328C197.774 12.768 198.806 12.488 199.942 12.488C200.934 12.488 201.798 12.688 202.534 13.088C203.286 13.488 203.886 13.992 204.334 14.6V12.704H207.718V26H204.334V24.056C203.902 24.68 203.302 25.2 202.534 25.616C201.782 26.016 200.91 26.216 199.918 26.216C198.798 26.216 197.774 25.928 196.846 25.352C195.934 24.776 195.206 23.968 194.662 22.928C194.134 21.872 193.87 20.664 193.87 19.304ZM204.334 19.352C204.334 18.536 204.174 17.84 203.854 17.264C203.534 16.672 203.102 16.224 202.558 15.92C202.014 15.6 201.43 15.44 200.806 15.44C200.182 15.44 199.606 15.592 199.078 15.896C198.55 16.2 198.118 16.648 197.782 17.24C197.462 17.816 197.302 18.504 197.302 19.304C197.302 20.104 197.462 20.808 197.782 21.416C198.118 22.008 198.55 22.464 199.078 22.784C199.622 23.104 200.198 23.264 200.806 23.264C201.43 23.264 202.014 23.112 202.558 22.808C203.102 22.488 203.534 22.04 203.854 21.464C204.174 20.872 204.334 20.168 204.334 19.352ZM227.512 12.512C229.144 12.512 230.456 13.016 231.448 14.024C232.456 15.016 232.96 16.408 232.96 18.2V26H229.6V18.656C229.6 17.616 229.336 16.824 228.808 16.28C228.28 15.72 227.56 15.44 226.648 15.44C225.736 15.44 225.008 15.72 224.464 16.28C223.936 16.824 223.672 17.616 223.672 18.656V26H220.312V18.656C220.312 17.616 220.048 16.824 219.52 16.28C218.992 15.72 218.272 15.44 217.36 15.44C216.432 15.44 215.696 15.72 215.152 16.28C214.624 16.824 214.36 17.616 214.36 18.656V26H211V12.704H214.36V14.312C214.792 13.752 215.344 13.312 216.016 12.992C216.704 12.672 217.456 12.512 218.272 12.512C219.312 12.512 220.24 12.736 221.056 13.184C221.872 13.616 222.504 14.24 222.952 15.056C223.384 14.288 224.008 13.672 224.824 13.208C225.656 12.744 226.552 12.512 227.512 12.512ZM242.052 26.216C240.772 26.216 239.62 25.936 238.596 25.376C237.572 24.8 236.764 23.992 236.172 22.952C235.596 21.912 235.308 20.712 235.308 19.352C235.308 17.992 235.604 16.792 236.196 15.752C236.804 14.712 237.628 13.912 238.668 13.352C239.708 12.776 240.868 12.488 242.148 12.488C243.428 12.488 244.588 12.776 245.628 13.352C246.668 13.912 247.484 14.712 248.076 15.752C248.684 16.792 248.988 17.992 248.988 19.352C248.988 20.712 248.676 21.912 248.052 22.952C247.444 23.992 246.612 24.8 245.556 25.376C244.516 25.936 243.348 26.216 242.052 26.216ZM242.052 23.288C242.66 23.288 243.228 23.144 243.756 22.856C244.3 22.552 244.732 22.104 245.052 21.512C245.372 20.92 245.532 20.2 245.532 19.352C245.532 18.088 245.196 17.12 244.524 16.448C243.868 15.76 243.06 15.416 242.1 15.416C241.14 15.416 240.332 15.76 239.676 16.448C239.036 17.12 238.716 18.088 238.716 19.352C238.716 20.616 239.028 21.592 239.652 22.28C240.292 22.952 241.092 23.288 242.052 23.288ZM256.541 26.216C255.453 26.216 254.477 26.024 253.613 25.64C252.749 25.24 252.061 24.704 251.549 24.032C251.053 23.36 250.781 22.616 250.733 21.8H254.117C254.181 22.312 254.429 22.736 254.861 23.072C255.309 23.408 255.861 23.576 256.517 23.576C257.157 23.576 257.653 23.448 258.005 23.192C258.373 22.936 258.557 22.608 258.557 22.208C258.557 21.776 258.333 21.456 257.885 21.248C257.453 21.024 256.757 20.784 255.797 20.528C254.805 20.288 253.989 20.04 253.349 19.784C252.725 19.528 252.181 19.136 251.717 18.608C251.269 18.08 251.045 17.368 251.045 16.472C251.045 15.736 251.253 15.064 251.669 14.456C252.101 13.848 252.709 13.368 253.493 13.016C254.293 12.664 255.229 12.488 256.301 12.488C257.885 12.488 259.149 12.888 260.093 13.688C261.037 14.472 261.557 15.536 261.653 16.88H258.437C258.389 16.352 258.165 15.936 257.765 15.632C257.381 15.312 256.861 15.152 256.205 15.152C255.597 15.152 255.125 15.264 254.789 15.488C254.469 15.712 254.309 16.024 254.309 16.424C254.309 16.872 254.533 17.216 254.981 17.456C255.429 17.68 256.125 17.912 257.069 18.152C258.029 18.392 258.821 18.64 259.445 18.896C260.069 19.152 260.605 19.552 261.053 20.096C261.517 20.624 261.757 21.328 261.773 22.208C261.773 22.976 261.557 23.664 261.125 24.272C260.709 24.88 260.101 25.36 259.301 25.712C258.517 26.048 257.597 26.216 256.541 26.216ZM269.386 19.304C269.386 17.96 269.65 16.768 270.178 15.728C270.722 14.688 271.45 13.888 272.362 13.328C273.29 12.768 274.322 12.488 275.458 12.488C276.45 12.488 277.314 12.688 278.05 13.088C278.802 13.488 279.402 13.992 279.85 14.6V12.704H283.234V26H279.85V24.056C279.418 24.68 278.818 25.2 278.05 25.616C277.298 26.016 276.426 26.216 275.434 26.216C274.314 26.216 273.29 25.928 272.362 25.352C271.45 24.776 270.722 23.968 270.178 22.928C269.65 21.872 269.386 20.664 269.386 19.304ZM279.85 19.352C279.85 18.536 279.69 17.84 279.37 17.264C279.05 16.672 278.618 16.224 278.074 15.92C277.53 15.6 276.946 15.44 276.322 15.44C275.698 15.44 275.122 15.592 274.594 15.896C274.066 16.2 273.634 16.648 273.298 17.24C272.978 17.816 272.818 18.504 272.818 19.304C272.818 20.104 272.978 20.808 273.298 21.416C273.634 22.008 274.066 22.464 274.594 22.784C275.138 23.104 275.714 23.264 276.322 23.264C276.946 23.264 277.53 23.112 278.074 22.808C278.618 22.488 279.05 22.04 279.37 21.464C279.69 20.872 279.85 20.168 279.85 19.352ZM289.875 14.624C290.307 14.016 290.899 13.512 291.651 13.112C292.419 12.696 293.291 12.488 294.267 12.488C295.403 12.488 296.427 12.768 297.339 13.328C298.267 13.888 298.995 14.688 299.523 15.728C300.067 16.752 300.339 17.944 300.339 19.304C300.339 20.664 300.067 21.872 299.523 22.928C298.995 23.968 298.267 24.776 297.339 25.352C296.427 25.928 295.403 26.216 294.267 26.216C293.291 26.216 292.427 26.016 291.675 25.616C290.939 25.216 290.339 24.712 289.875 24.104V32.336H286.515V12.704H289.875V14.624ZM296.907 19.304C296.907 18.504 296.739 17.816 296.403 17.24C296.083 16.648 295.651 16.2 295.107 15.896C294.579 15.592 294.003 15.44 293.379 15.44C292.771 15.44 292.195 15.6 291.651 15.92C291.123 16.224 290.691 16.672 290.355 17.264C290.035 17.856 289.875 18.552 289.875 19.352C289.875 20.152 290.035 20.848 290.355 21.44C290.691 22.032 291.123 22.488 291.651 22.808C292.195 23.112 292.771 23.264 293.379 23.264C294.003 23.264 294.579 23.104 295.107 22.784C295.651 22.464 296.083 22.008 296.403 21.416C296.739 20.824 296.907 20.12 296.907 19.304ZM306.141 14.768C306.573 14.064 307.133 13.512 307.821 13.112C308.525 12.712 309.325 12.512 310.221 12.512V16.04H309.333C308.277 16.04 307.477 16.288 306.933 16.784C306.405 17.28 306.141 18.144 306.141 19.376V26H302.781V12.704H306.141V14.768ZM324.844 19.064C324.844 19.544 324.812 19.976 324.748 20.36H315.028C315.108 21.32 315.444 22.072 316.036 22.616C316.628 23.16 317.356 23.432 318.22 23.432C319.468 23.432 320.356 22.896 320.884 21.824H324.508C324.124 23.104 323.388 24.16 322.3 24.992C321.212 25.808 319.876 26.216 318.292 26.216C317.012 26.216 315.86 25.936 314.836 25.376C313.828 24.8 313.036 23.992 312.46 22.952C311.9 21.912 311.62 20.712 311.62 19.352C311.62 17.976 311.9 16.768 312.46 15.728C313.02 14.688 313.804 13.888 314.812 13.328C315.82 12.768 316.98 12.488 318.292 12.488C319.556 12.488 320.684 12.76 321.676 13.304C322.684 13.848 323.46 14.624 324.004 15.632C324.564 16.624 324.844 17.768 324.844 19.064ZM321.364 18.104C321.348 17.24 321.036 16.552 320.428 16.04C319.82 15.512 319.076 15.248 318.196 15.248C317.364 15.248 316.66 15.504 316.084 16.016C315.524 16.512 315.18 17.208 315.052 18.104H321.364ZM334.665 12.512C336.249 12.512 337.529 13.016 338.505 14.024C339.481 15.016 339.969 16.408 339.969 18.2V26H336.609V18.656C336.609 17.6 336.345 16.792 335.817 16.232C335.289 15.656 334.569 15.368 333.657 15.368C332.729 15.368 331.993 15.656 331.449 16.232C330.921 16.792 330.657 17.6 330.657 18.656V26H327.297V12.704H330.657V14.36C331.105 13.784 331.673 13.336 332.361 13.016C333.065 12.68 333.833 12.512 334.665 12.512ZM342.3 19.304C342.3 17.96 342.564 16.768 343.092 15.728C343.636 14.688 344.372 13.888 345.3 13.328C346.228 12.768 347.26 12.488 348.396 12.488C349.26 12.488 350.084 12.68 350.868 13.064C351.652 13.432 352.276 13.928 352.74 14.552V8.24H356.148V26H352.74V24.032C352.324 24.688 351.74 25.216 350.988 25.616C350.236 26.016 349.364 26.216 348.372 26.216C347.252 26.216 346.228 25.928 345.3 25.352C344.372 24.776 343.636 23.968 343.092 22.928C342.564 21.872 342.3 20.664 342.3 19.304ZM352.764 19.352C352.764 18.536 352.604 17.84 352.284 17.264C351.964 16.672 351.532 16.224 350.988 15.92C350.444 15.6 349.86 15.44 349.236 15.44C348.612 15.44 348.036 15.592 347.508 15.896C346.98 16.2 346.548 16.648 346.212 17.24C345.892 17.816 345.732 18.504 345.732 19.304C345.732 20.104 345.892 20.808 346.212 21.416C346.548 22.008 346.98 22.464 347.508 22.784C348.052 23.104 348.628 23.264 349.236 23.264C349.86 23.264 350.444 23.112 350.988 22.808C351.532 22.488 351.964 22.04 352.284 21.464C352.604 20.872 352.764 20.168 352.764 19.352ZM371.789 19.064C371.789 19.544 371.757 19.976 371.693 20.36H361.973C362.053 21.32 362.389 22.072 362.981 22.616C363.573 23.16 364.301 23.432 365.165 23.432C366.413 23.432 367.301 22.896 367.829 21.824H371.453C371.069 23.104 370.333 24.16 369.245 24.992C368.157 25.808 366.821 26.216 365.237 26.216C363.957 26.216 362.805 25.936 361.781 25.376C360.773 24.8 359.981 23.992 359.405 22.952C358.845 21.912 358.565 20.712 358.565 19.352C358.565 17.976 358.845 16.768 359.405 15.728C359.965 14.688 360.749 13.888 361.757 13.328C362.765 12.768 363.925 12.488 365.237 12.488C366.501 12.488 367.629 12.76 368.621 13.304C369.629 13.848 370.405 14.624 370.949 15.632C371.509 16.624 371.789 17.768 371.789 19.064ZM368.309 18.104C368.293 17.24 367.981 16.552 367.373 16.04C366.765 15.512 366.021 15.248 365.141 15.248C364.309 15.248 363.605 15.504 363.029 16.016C362.469 16.512 362.125 17.208 361.997 18.104H368.309ZM377.602 14.768C378.034 14.064 378.594 13.512 379.282 13.112C379.986 12.712 380.786 12.512 381.682 12.512V16.04H380.794C379.738 16.04 378.938 16.288 378.394 16.784C377.866 17.28 377.602 18.144 377.602 19.376V26H374.242V12.704H377.602V14.768ZM397.032 12.512C398.616 12.512 399.896 13.016 400.872 14.024C401.848 15.016 402.336 16.408 402.336 18.2V26H398.976V18.656C398.976 17.6 398.712 16.792 398.184 16.232C397.656 15.656 396.936 15.368 396.024 15.368C395.096 15.368 394.36 15.656 393.816 16.232C393.288 16.792 393.024 17.6 393.024 18.656V26H389.664V12.704H393.024V14.36C393.472 13.784 394.04 13.336 394.728 13.016C395.432 12.68 396.2 12.512 397.032 12.512ZM404.667 19.304C404.667 17.96 404.931 16.768 405.459 15.728C406.003 14.688 406.731 13.888 407.643 13.328C408.571 12.768 409.603 12.488 410.739 12.488C411.731 12.488 412.595 12.688 413.331 13.088C414.083 13.488 414.683 13.992 415.131 14.6V12.704H418.515V26H415.131V24.056C414.699 24.68 414.099 25.2 413.331 25.616C412.579 26.016 411.707 26.216 410.715 26.216C409.595 26.216 408.571 25.928 407.643 25.352C406.731 24.776 406.003 23.968 405.459 22.928C404.931 21.872 404.667 20.664 404.667 19.304ZM415.131 19.352C415.131 18.536 414.971 17.84 414.651 17.264C414.331 16.672 413.899 16.224 413.355 15.92C412.811 15.6 412.227 15.44 411.603 15.44C410.979 15.44 410.403 15.592 409.875 15.896C409.347 16.2 408.915 16.648 408.579 17.24C408.259 17.816 408.099 18.504 408.099 19.304C408.099 20.104 408.259 20.808 408.579 21.416C408.915 22.008 409.347 22.464 409.875 22.784C410.419 23.104 410.995 23.264 411.603 23.264C412.227 23.264 412.811 23.112 413.355 22.808C413.899 22.488 414.331 22.04 414.651 21.464C414.971 20.872 415.131 20.168 415.131 19.352ZM430.875 14.624C431.307 14.016 431.899 13.512 432.651 13.112C433.419 12.696 434.291 12.488 435.267 12.488C436.403 12.488 437.427 12.768 438.339 13.328C439.267 13.888 439.995 14.688 440.523 15.728C441.067 16.752 441.339 17.944 441.339 19.304C441.339 20.664 441.067 21.872 440.523 22.928C439.995 23.968 439.267 24.776 438.339 25.352C437.427 25.928 436.403 26.216 435.267 26.216C434.291 26.216 433.427 26.016 432.675 25.616C431.939 25.216 431.339 24.712 430.875 24.104V32.336H427.515V12.704H430.875V14.624ZM437.907 19.304C437.907 18.504 437.739 17.816 437.403 17.24C437.083 16.648 436.651 16.2 436.107 15.896C435.579 15.592 435.003 15.44 434.379 15.44C433.771 15.44 433.195 15.6 432.651 15.92C432.123 16.224 431.691 16.672 431.355 17.264C431.035 17.856 430.875 18.552 430.875 19.352C430.875 20.152 431.035 20.848 431.355 21.44C431.691 22.032 432.123 22.488 432.651 22.808C433.195 23.112 433.771 23.264 434.379 23.264C435.003 23.264 435.579 23.104 436.107 22.784C436.651 22.464 437.083 22.008 437.403 21.416C437.739 20.824 437.907 20.12 437.907 19.304ZM447.141 14.768C447.573 14.064 448.133 13.512 448.821 13.112C449.525 12.712 450.325 12.512 451.221 12.512V16.04H450.333C449.277 16.04 448.477 16.288 447.933 16.784C447.405 17.28 447.141 18.144 447.141 19.376V26H443.781V12.704H447.141V14.768ZM452.62 19.304C452.62 17.96 452.884 16.768 453.412 15.728C453.956 14.688 454.684 13.888 455.596 13.328C456.524 12.768 457.556 12.488 458.692 12.488C459.684 12.488 460.548 12.688 461.284 13.088C462.036 13.488 462.636 13.992 463.084 14.6V12.704H466.468V26H463.084V24.056C462.652 24.68 462.052 25.2 461.284 25.616C460.532 26.016 459.66 26.216 458.668 26.216C457.548 26.216 456.524 25.928 455.596 25.352C454.684 24.776 453.956 23.968 453.412 22.928C452.884 21.872 452.62 20.664 452.62 19.304ZM463.084 19.352C463.084 18.536 462.924 17.84 462.604 17.264C462.284 16.672 461.852 16.224 461.308 15.92C460.764 15.6 460.18 15.44 459.556 15.44C458.932 15.44 458.356 15.592 457.828 15.896C457.3 16.2 456.868 16.648 456.532 17.24C456.212 17.816 456.052 18.504 456.052 19.304C456.052 20.104 456.212 20.808 456.532 21.416C456.868 22.008 457.3 22.464 457.828 22.784C458.372 23.104 458.948 23.264 459.556 23.264C460.18 23.264 460.764 23.112 461.308 22.808C461.852 22.488 462.284 22.04 462.604 21.464C462.924 20.872 463.084 20.168 463.084 19.352ZM462.628 9.248L457.108 11.768V9.368L462.628 6.512V9.248ZM473.662 15.464V21.896C473.662 22.344 473.766 22.672 473.974 22.88C474.198 23.072 474.566 23.168 475.078 23.168H476.638V26H474.526C471.694 26 470.278 24.624 470.278 21.872V15.464H468.694V12.704H470.278V9.416H473.662V12.704H476.638V15.464H473.662ZM480.758 11.12C480.166 11.12 479.67 10.936 479.27 10.568C478.886 10.184 478.694 9.712 478.694 9.152C478.694 8.592 478.886 8.128 479.27 7.76C479.67 7.376 480.166 7.184 480.758 7.184C481.35 7.184 481.838 7.376 482.222 7.76C482.622 8.128 482.822 8.592 482.822 9.152C482.822 9.712 482.622 10.184 482.222 10.568C481.838 10.936 481.35 11.12 480.758 11.12ZM482.414 12.704V26H479.054V12.704H482.414ZM484.87 19.352C484.87 17.976 485.15 16.776 485.71 15.752C486.27 14.712 487.046 13.912 488.038 13.352C489.03 12.776 490.166 12.488 491.446 12.488C493.094 12.488 494.454 12.904 495.526 13.736C496.614 14.552 497.342 15.704 497.71 17.192H494.086C493.894 16.616 493.566 16.168 493.102 15.848C492.654 15.512 492.094 15.344 491.422 15.344C490.462 15.344 489.702 15.696 489.142 16.4C488.582 17.088 488.302 18.072 488.302 19.352C488.302 20.616 488.582 21.6 489.142 22.304C489.702 22.992 490.462 23.336 491.422 23.336C492.782 23.336 493.67 22.728 494.086 21.512H497.71C497.342 22.952 496.614 24.096 495.526 24.944C494.438 25.792 493.078 26.216 491.446 26.216C490.166 26.216 489.03 25.936 488.038 25.376C487.046 24.8 486.27 24 485.71 22.976C485.15 21.936 484.87 20.728 484.87 19.352ZM499.308 19.304C499.308 17.96 499.572 16.768 500.1 15.728C500.644 14.688 501.372 13.888 502.284 13.328C503.212 12.768 504.244 12.488 505.38 12.488C506.372 12.488 507.236 12.688 507.972 13.088C508.724 13.488 509.324 13.992 509.772 14.6V12.704H513.156V26H509.772V24.056C509.34 24.68 508.74 25.2 507.972 25.616C507.22 26.016 506.348 26.216 505.356 26.216C504.236 26.216 503.212 25.928 502.284 25.352C501.372 24.776 500.644 23.968 500.1 22.928C499.572 21.872 499.308 20.664 499.308 19.304ZM509.772 19.352C509.772 18.536 509.612 17.84 509.292 17.264C508.972 16.672 508.54 16.224 507.996 15.92C507.452 15.6 506.868 15.44 506.244 15.44C505.62 15.44 505.044 15.592 504.516 15.896C503.988 16.2 503.556 16.648 503.22 17.24C502.9 17.816 502.74 18.504 502.74 19.304C502.74 20.104 502.9 20.808 503.22 21.416C503.556 22.008 503.988 22.464 504.516 22.784C505.06 23.104 505.636 23.264 506.244 23.264C506.868 23.264 507.452 23.112 507.996 22.808C508.54 22.488 508.972 22.04 509.292 21.464C509.612 20.872 509.772 20.168 509.772 19.352Z" fill="#FF2323"/>
<path d="M12.88 96.28C9.6 96.28 6.90667 95.5067 4.8 93.96C2.69333 92.3867 1.56 90.1467 1.4 87.24H9.76C9.84 88.2267 10.1333 88.9467 10.64 89.4C11.1467 89.8533 11.8 90.08 12.6 90.08C13.32 90.08 13.9067 89.9067 14.36 89.56C14.84 89.1867 15.08 88.68 15.08 88.04C15.08 87.2133 14.6933 86.5733 13.92 86.12C13.1467 85.6667 11.8933 85.16 10.16 84.6C8.32 83.9867 6.82667 83.4 5.68 82.84C4.56 82.2533 3.57333 81.4133 2.72 80.32C1.89333 79.2 1.48 77.7467 1.48 75.96C1.48 74.1467 1.93333 72.6 2.84 71.32C3.74667 70.0133 5 69.0267 6.6 68.36C8.2 67.6933 10.0133 67.36 12.04 67.36C15.32 67.36 17.9333 68.1333 19.88 69.68C21.8533 71.2 22.9067 73.3467 23.04 76.12H14.52C14.4933 75.2667 14.2267 74.6267 13.72 74.2C13.24 73.7733 12.6133 73.56 11.84 73.56C11.2533 73.56 10.7733 73.7333 10.4 74.08C10.0267 74.4267 9.84 74.92 9.84 75.56C9.84 76.0933 10.04 76.56 10.44 76.96C10.8667 77.3333 11.3867 77.6667 12 77.96C12.6133 78.2267 13.52 78.5733 14.72 79C16.5067 79.6133 17.9733 80.2267 19.12 80.84C20.2933 81.4267 21.2933 82.2667 22.12 83.36C22.9733 84.4267 23.4 85.7867 23.4 87.44C23.4 89.12 22.9733 90.6267 22.12 91.96C21.2933 93.2933 20.08 94.3467 18.48 95.12C16.9067 95.8933 15.04 96.28 12.88 96.28ZM48.4847 84.52C48.4847 85.1333 48.4447 85.7467 48.3647 86.36H33.5247C33.6047 87.5867 33.938 88.5067 34.5247 89.12C35.138 89.7067 35.9114 90 36.8447 90C38.1514 90 39.0847 89.4133 39.6447 88.24H48.0047C47.658 89.7867 46.978 91.1733 45.9647 92.4C44.978 93.6 43.7247 94.5467 42.2047 95.24C40.6847 95.9333 39.0047 96.28 37.1647 96.28C34.9514 96.28 32.978 95.8133 31.2447 94.88C29.538 93.9467 28.1914 92.6133 27.2047 90.88C26.2447 89.1467 25.7647 87.1067 25.7647 84.76C25.7647 82.4133 26.2447 80.3867 27.2047 78.68C28.1647 76.9467 29.498 75.6133 31.2047 74.68C32.938 73.7467 34.9247 73.28 37.1647 73.28C39.378 73.28 41.338 73.7333 43.0447 74.64C44.7514 75.5467 46.0847 76.8533 47.0447 78.56C48.0047 80.24 48.4847 82.2267 48.4847 84.52ZM40.4847 82.56C40.4847 81.6 40.1647 80.8533 39.5247 80.32C38.8847 79.76 38.0847 79.48 37.1247 79.48C36.1647 79.48 35.378 79.7467 34.7647 80.28C34.1514 80.7867 33.7514 81.5467 33.5647 82.56H40.4847ZM59.5331 77.52C60.4131 76.24 61.4798 75.2267 62.7331 74.48C63.9865 73.7333 65.3331 73.36 66.7731 73.36V81.72H64.5731C62.8665 81.72 61.5998 82.0533 60.7731 82.72C59.9465 83.3867 59.5331 84.5467 59.5331 86.2V96H51.6931V73.56H59.5331V77.52ZM68.3038 84.76C68.3038 82.44 68.7171 80.4133 69.5438 78.68C70.3971 76.9467 71.5438 75.6133 72.9838 74.68C74.4504 73.7467 76.0771 73.28 77.8638 73.28C79.4104 73.28 80.7438 73.5867 81.8638 74.2C82.9838 74.8133 83.8504 75.64 84.4638 76.68V73.56H92.3038V96H84.4638V92.88C83.8504 93.92 82.9704 94.7467 81.8238 95.36C80.7038 95.9733 79.3838 96.28 77.8638 96.28C76.0771 96.28 74.4504 95.8133 72.9838 94.88C71.5438 93.9467 70.3971 92.6133 69.5438 90.88C68.7171 89.12 68.3038 87.08 68.3038 84.76ZM84.4638 84.76C84.4638 83.32 84.0638 82.1867 83.2638 81.36C82.4904 80.5333 81.5304 80.12 80.3838 80.12C79.2104 80.12 78.2371 80.5333 77.4638 81.36C76.6904 82.16 76.3038 83.2933 76.3038 84.76C76.3038 86.2 76.6904 87.3467 77.4638 88.2C78.2371 89.0267 79.2104 89.44 80.3838 89.44C81.5304 89.44 82.4904 89.0267 83.2638 88.2C84.0638 87.3733 84.4638 86.2267 84.4638 84.76ZM86.0238 68.12L76.0238 72.04V66.72L86.0238 62.2V68.12ZM103.148 84.88C103.148 82.6667 103.601 80.6933 104.508 78.96C105.441 77.2 106.668 75.8267 108.188 74.84C109.734 73.8533 111.414 73.36 113.228 73.36C115.841 73.36 117.868 74.1867 119.308 75.84V73.56H127.148V106.72H119.308V93.36C117.654 95.3067 115.614 96.28 113.188 96.28C111.374 96.28 109.694 95.8 108.148 94.84C106.628 93.88 105.414 92.5333 104.508 90.8C103.601 89.0667 103.148 87.0933 103.148 84.88ZM119.308 84.76C119.308 83.2667 118.881 82.1333 118.028 81.36C117.201 80.56 116.268 80.16 115.228 80.16C114.188 80.16 113.241 80.5733 112.388 81.4C111.561 82.2 111.148 83.36 111.148 84.88C111.148 86.4 111.561 87.5467 112.388 88.32C113.214 89.0667 114.161 89.44 115.228 89.44C116.268 89.44 117.201 89.04 118.028 88.24C118.881 87.44 119.308 86.28 119.308 84.76ZM154.575 73.56V96H146.695V92.8C146.028 93.8133 145.108 94.64 143.935 95.28C142.762 95.8933 141.415 96.2 139.895 96.2C137.282 96.2 135.215 95.3467 133.695 93.64C132.202 91.9067 131.455 89.56 131.455 86.6V73.56H139.255V85.6C139.255 86.88 139.588 87.8933 140.255 88.64C140.948 89.36 141.855 89.72 142.975 89.72C144.122 89.72 145.028 89.36 145.695 88.64C146.362 87.8933 146.695 86.88 146.695 85.6V73.56H154.575ZM180.477 84.52C180.477 85.1333 180.437 85.7467 180.357 86.36H165.517C165.597 87.5867 165.93 88.5067 166.517 89.12C167.13 89.7067 167.904 90 168.837 90C170.144 90 171.077 89.4133 171.637 88.24H179.997C179.65 89.7867 178.97 91.1733 177.957 92.4C176.97 93.6 175.717 94.5467 174.197 95.24C172.677 95.9333 170.997 96.28 169.157 96.28C166.944 96.28 164.97 95.8133 163.237 94.88C161.53 93.9467 160.184 92.6133 159.197 90.88C158.237 89.1467 157.757 87.1067 157.757 84.76C157.757 82.4133 158.237 80.3867 159.197 78.68C160.157 76.9467 161.49 75.6133 163.197 74.68C164.93 73.7467 166.917 73.28 169.157 73.28C171.37 73.28 173.33 73.7333 175.037 74.64C176.744 75.5467 178.077 76.8533 179.037 78.56C179.997 80.24 180.477 82.2267 180.477 84.52ZM172.477 82.56C172.477 81.6 172.157 80.8533 171.517 80.32C170.877 79.76 170.077 79.48 169.117 79.48C168.157 79.48 167.37 79.7467 166.757 80.28C166.144 80.7867 165.744 81.5467 165.557 82.56H172.477ZM212.782 84.52C212.782 85.1333 212.742 85.7467 212.662 86.36H197.822C197.902 87.5867 198.235 88.5067 198.822 89.12C199.435 89.7067 200.208 90 201.142 90C202.448 90 203.382 89.4133 203.942 88.24H212.302C211.955 89.7867 211.275 91.1733 210.262 92.4C209.275 93.6 208.022 94.5467 206.502 95.24C204.982 95.9333 203.302 96.28 201.462 96.28C199.248 96.28 197.275 95.8133 195.542 94.88C193.835 93.9467 192.488 92.6133 191.502 90.88C190.542 89.1467 190.062 87.1067 190.062 84.76C190.062 82.4133 190.542 80.3867 191.502 78.68C192.462 76.9467 193.795 75.6133 195.502 74.68C197.235 73.7467 199.222 73.28 201.462 73.28C203.675 73.28 205.635 73.7333 207.342 74.64C209.048 75.5467 210.382 76.8533 211.342 78.56C212.302 80.24 212.782 82.2267 212.782 84.52ZM204.782 82.56C204.782 81.6 204.462 80.8533 203.822 80.32C203.182 79.76 202.382 79.48 201.422 79.48C200.462 79.48 199.675 79.7467 199.062 80.28C198.448 80.7867 198.048 81.5467 197.862 82.56H204.782ZM206.302 67.92L196.302 71.84V66.52L206.302 62V67.92ZM235.766 80.08H232.246V96H224.366V80.08H221.926V73.56H224.366V73.36C224.366 70.48 225.206 68.28 226.886 66.76C228.593 65.2133 231.033 64.44 234.206 64.44C234.846 64.44 235.34 64.4533 235.686 64.48V71.16C235.473 71.1333 235.18 71.12 234.806 71.12C233.953 71.12 233.326 71.32 232.926 71.72C232.526 72.0933 232.3 72.7067 232.246 73.56H235.766V80.08ZM237.288 84.76C237.288 82.44 237.701 80.4133 238.528 78.68C239.381 76.9467 240.528 75.6133 241.968 74.68C243.435 73.7467 245.061 73.28 246.848 73.28C248.395 73.28 249.728 73.5867 250.848 74.2C251.968 74.8133 252.835 75.64 253.448 76.68V73.56H261.288V96H253.448V92.88C252.835 93.92 251.955 94.7467 250.808 95.36C249.688 95.9733 248.368 96.28 246.848 96.28C245.061 96.28 243.435 95.8133 241.968 94.88C240.528 93.9467 239.381 92.6133 238.528 90.88C237.701 89.12 237.288 87.08 237.288 84.76ZM253.448 84.76C253.448 83.32 253.048 82.1867 252.248 81.36C251.475 80.5333 250.515 80.12 249.368 80.12C248.195 80.12 247.221 80.5333 246.448 81.36C245.675 82.16 245.288 83.2933 245.288 84.76C245.288 86.2 245.675 87.3467 246.448 88.2C247.221 89.0267 248.195 89.44 249.368 89.44C250.515 89.44 251.475 89.0267 252.248 88.2C253.048 87.3733 253.448 86.2267 253.448 84.76ZM264.476 84.76C264.476 82.44 264.956 80.4133 265.916 78.68C266.876 76.9467 268.209 75.6133 269.916 74.68C271.649 73.7467 273.622 73.28 275.836 73.28C278.689 73.28 281.089 74.0667 283.036 75.64C284.982 77.1867 286.236 79.36 286.796 82.16H278.476C277.996 80.6933 277.062 79.96 275.676 79.96C274.689 79.96 273.902 80.3733 273.316 81.2C272.756 82 272.476 83.1867 272.476 84.76C272.476 86.3333 272.756 87.5333 273.316 88.36C273.902 89.1867 274.689 89.6 275.676 89.6C277.089 89.6 278.022 88.8667 278.476 87.4H286.796C286.236 90.1733 284.982 92.3467 283.036 93.92C281.089 95.4933 278.689 96.28 275.836 96.28C273.622 96.28 271.649 95.8133 269.916 94.88C268.209 93.9467 266.876 92.6133 265.916 90.88C264.956 89.1467 264.476 87.1067 264.476 84.76ZM294.013 71.48C292.626 71.48 291.506 71.1067 290.653 70.36C289.826 69.5867 289.413 68.6267 289.413 67.48C289.413 66.3067 289.826 65.3333 290.653 64.56C291.506 63.7867 292.626 63.4 294.013 63.4C295.373 63.4 296.466 63.7867 297.293 64.56C298.146 65.3333 298.573 66.3067 298.573 67.48C298.573 68.6267 298.146 69.5867 297.293 70.36C296.466 71.1067 295.373 71.48 294.013 71.48ZM297.893 73.56V96H290.053V73.56H297.893ZM310.197 66.4V96H302.357V66.4H310.197ZM334.438 80.08H330.918V96H323.038V80.08H320.598V73.56H323.038V73.36C323.038 70.48 323.878 68.28 325.558 66.76C327.265 65.2133 329.705 64.44 332.878 64.44C333.518 64.44 334.011 64.4533 334.358 64.48V71.16C334.145 71.1333 333.851 71.12 333.478 71.12C332.625 71.12 331.998 71.32 331.598 71.72C331.198 72.0933 330.971 72.7067 330.918 73.56H334.438V80.08ZM335.96 84.76C335.96 82.44 336.373 80.4133 337.2 78.68C338.053 76.9467 339.2 75.6133 340.64 74.68C342.107 73.7467 343.733 73.28 345.52 73.28C347.067 73.28 348.4 73.5867 349.52 74.2C350.64 74.8133 351.507 75.64 352.12 76.68V73.56H359.96V96H352.12V92.88C351.507 93.92 350.627 94.7467 349.48 95.36C348.36 95.9733 347.04 96.28 345.52 96.28C343.733 96.28 342.107 95.8133 340.64 94.88C339.2 93.9467 338.053 92.6133 337.2 90.88C336.373 89.12 335.96 87.08 335.96 84.76ZM352.12 84.76C352.12 83.32 351.72 82.1867 350.92 81.36C350.147 80.5333 349.187 80.12 348.04 80.12C346.867 80.12 345.893 80.5333 345.12 81.36C344.347 82.16 343.96 83.2933 343.96 84.76C343.96 86.2 344.347 87.3467 345.12 88.2C345.893 89.0267 346.867 89.44 348.04 89.44C349.187 89.44 350.147 89.0267 350.92 88.2C351.72 87.3733 352.12 86.2267 352.12 84.76ZM371.868 89.48H381.428V96H363.228V89.8L372.148 80.08H363.308V73.56H381.108V79.76L371.868 89.48ZM406.141 84.52C406.141 85.1333 406.101 85.7467 406.021 86.36H391.181C391.261 87.5867 391.594 88.5067 392.181 89.12C392.794 89.7067 393.568 90 394.501 90C395.808 90 396.741 89.4133 397.301 88.24H405.661C405.314 89.7867 404.634 91.1733 403.621 92.4C402.634 93.6 401.381 94.5467 399.861 95.24C398.341 95.9333 396.661 96.28 394.821 96.28C392.608 96.28 390.634 95.8133 388.901 94.88C387.194 93.9467 385.848 92.6133 384.861 90.88C383.901 89.1467 383.421 87.1067 383.421 84.76C383.421 82.4133 383.901 80.3867 384.861 78.68C385.821 76.9467 387.154 75.6133 388.861 74.68C390.594 73.7467 392.581 73.28 394.821 73.28C397.034 73.28 398.994 73.7333 400.701 74.64C402.408 75.5467 403.741 76.8533 404.701 78.56C405.661 80.24 406.141 82.2267 406.141 84.52ZM398.141 82.56C398.141 81.6 397.821 80.8533 397.181 80.32C396.541 79.76 395.741 79.48 394.781 79.48C393.821 79.48 393.034 79.7467 392.421 80.28C391.808 80.7867 391.408 81.5467 391.221 82.56H398.141ZM417.189 77.52C418.069 76.24 419.136 75.2267 420.389 74.48C421.643 73.7333 422.989 73.36 424.429 73.36V81.72H422.229C420.523 81.72 419.256 82.0533 418.429 82.72C417.603 83.3867 417.189 84.5467 417.189 86.2V96H409.349V73.56H417.189V77.52ZM445.336 96.28C443.096 96.28 441.083 95.8133 439.296 94.88C437.536 93.9467 436.15 92.6133 435.136 90.88C434.123 89.1467 433.616 87.1067 433.616 84.76C433.616 82.44 434.123 80.4133 435.136 78.68C436.176 76.9467 437.576 75.6133 439.336 74.68C441.123 73.7467 443.136 73.28 445.376 73.28C447.616 73.28 449.616 73.7467 451.376 74.68C453.163 75.6133 454.563 76.9467 455.576 78.68C456.616 80.4133 457.136 82.44 457.136 84.76C457.136 87.08 456.616 89.12 455.576 90.88C454.563 92.6133 453.163 93.9467 451.376 94.88C449.59 95.8133 447.576 96.28 445.336 96.28ZM445.336 89.48C446.43 89.48 447.336 89.08 448.056 88.28C448.803 87.4533 449.176 86.28 449.176 84.76C449.176 83.24 448.803 82.08 448.056 81.28C447.336 80.48 446.443 80.08 445.376 80.08C444.31 80.08 443.416 80.48 442.696 81.28C441.976 82.08 441.616 83.24 441.616 84.76C441.616 86.3067 441.963 87.48 442.656 88.28C443.35 89.08 444.243 89.48 445.336 89.48ZM493.222 67.8V96H485.382V84.68H475.822V96H467.982V67.8H475.822V78.4H485.382V67.8H493.222ZM518.949 67.8V74.04H511.429V96H503.589V74.04H496.149V67.8H518.949ZM554.769 67.8V96H546.929V80.44L541.609 96H535.049L529.689 80.32V96H521.849V67.8H531.329L538.409 86.12L545.329 67.8H554.769ZM567.072 90H575.832V96H559.232V67.8H567.072V90ZM23.68 144.52C23.68 145.133 23.64 145.747 23.56 146.36H8.72C8.8 147.587 9.13333 148.507 9.72 149.12C10.3333 149.707 11.1067 150 12.04 150C13.3467 150 14.28 149.413 14.84 148.24H23.2C22.8533 149.787 22.1733 151.173 21.16 152.4C20.1733 153.6 18.92 154.547 17.4 155.24C15.88 155.933 14.2 156.28 12.36 156.28C10.1467 156.28 8.17333 155.813 6.44 154.88C4.73333 153.947 3.38667 152.613 2.4 150.88C1.44 149.147 0.96 147.107 0.96 144.76C0.96 142.413 1.44 140.387 2.4 138.68C3.36 136.947 4.69333 135.613 6.4 134.68C8.13333 133.747 10.12 133.28 12.36 133.28C14.5733 133.28 16.5333 133.733 18.24 134.64C19.9467 135.547 21.28 136.853 22.24 138.56C23.2 140.24 23.68 142.227 23.68 144.52ZM15.68 142.56C15.68 141.6 15.36 140.853 14.72 140.32C14.08 139.76 13.28 139.48 12.32 139.48C11.36 139.48 10.5733 139.747 9.96 140.28C9.34667 140.787 8.94667 141.547 8.76 142.56H15.68ZM33.5847 141.84C33.5847 139.067 34.158 136.6 35.3047 134.44C36.478 132.253 38.1314 130.56 40.2647 129.36C42.398 128.133 44.8514 127.52 47.6247 127.52C51.1447 127.52 54.1047 128.467 56.5047 130.36C58.9047 132.227 60.4514 134.773 61.1447 138H52.7047C52.198 136.933 51.4914 136.12 50.5847 135.56C49.7047 135 48.678 134.72 47.5047 134.72C45.6914 134.72 44.238 135.373 43.1447 136.68C42.078 137.96 41.5447 139.68 41.5447 141.84C41.5447 144.027 42.078 145.773 43.1447 147.08C44.238 148.36 45.6914 149 47.5047 149C48.678 149 49.7047 148.72 50.5847 148.16C51.4914 147.6 52.198 146.787 52.7047 145.72H61.1447C60.4514 148.947 58.9047 151.507 56.5047 153.4C54.1047 155.267 51.1447 156.2 47.6247 156.2C44.8514 156.2 42.398 155.6 40.2647 154.4C38.1314 153.173 36.478 151.48 35.3047 149.32C34.158 147.133 33.5847 144.64 33.5847 141.84ZM75.4972 156.28C72.2172 156.28 69.5239 155.507 67.4172 153.96C65.3105 152.387 64.1772 150.147 64.0172 147.24H72.3772C72.4572 148.227 72.7505 148.947 73.2572 149.4C73.7639 149.853 74.4172 150.08 75.2172 150.08C75.9372 150.08 76.5239 149.907 76.9772 149.56C77.4572 149.187 77.6972 148.68 77.6972 148.04C77.6972 147.213 77.3105 146.573 76.5372 146.12C75.7639 145.667 74.5105 145.16 72.7772 144.6C70.9372 143.987 69.4439 143.4 68.2972 142.84C67.1772 142.253 66.1905 141.413 65.3372 140.32C64.5105 139.2 64.0972 137.747 64.0972 135.96C64.0972 134.147 64.5505 132.6 65.4572 131.32C66.3639 130.013 67.6172 129.027 69.2172 128.36C70.8172 127.693 72.6305 127.36 74.6572 127.36C77.9372 127.36 80.5505 128.133 82.4972 129.68C84.4705 131.2 85.5239 133.347 85.6572 136.12H77.1372C77.1105 135.267 76.8439 134.627 76.3372 134.2C75.8572 133.773 75.2305 133.56 74.4572 133.56C73.8705 133.56 73.3905 133.733 73.0172 134.08C72.6439 134.427 72.4572 134.92 72.4572 135.56C72.4572 136.093 72.6572 136.56 73.0572 136.96C73.4839 137.333 74.0039 137.667 74.6172 137.96C75.2305 138.227 76.1372 138.573 77.3372 139C79.1239 139.613 80.5905 140.227 81.7372 140.84C82.9105 141.427 83.9105 142.267 84.7372 143.36C85.5905 144.427 86.0172 145.787 86.0172 147.44C86.0172 149.12 85.5905 150.627 84.7372 151.96C83.9105 153.293 82.6972 154.347 81.0972 155.12C79.5239 155.893 77.6572 156.28 75.4972 156.28ZM100.302 156.28C97.0219 156.28 94.3285 155.507 92.2219 153.96C90.1152 152.387 88.9819 150.147 88.8219 147.24H97.1819C97.2619 148.227 97.5552 148.947 98.0619 149.4C98.5685 149.853 99.2219 150.08 100.022 150.08C100.742 150.08 101.329 149.907 101.782 149.56C102.262 149.187 102.502 148.68 102.502 148.04C102.502 147.213 102.115 146.573 101.342 146.12C100.569 145.667 99.3152 145.16 97.5819 144.6C95.7419 143.987 94.2485 143.4 93.1019 142.84C91.9819 142.253 90.9952 141.413 90.1419 140.32C89.3152 139.2 88.9019 137.747 88.9019 135.96C88.9019 134.147 89.3552 132.6 90.2619 131.32C91.1685 130.013 92.4219 129.027 94.0219 128.36C95.6219 127.693 97.4352 127.36 99.4619 127.36C102.742 127.36 105.355 128.133 107.302 129.68C109.275 131.2 110.329 133.347 110.462 136.12H101.942C101.915 135.267 101.649 134.627 101.142 134.2C100.662 133.773 100.035 133.56 99.2619 133.56C98.6752 133.56 98.1952 133.733 97.8219 134.08C97.4485 134.427 97.2619 134.92 97.2619 135.56C97.2619 136.093 97.4619 136.56 97.8619 136.96C98.2885 137.333 98.8085 137.667 99.4219 137.96C100.035 138.227 100.942 138.573 102.142 139C103.929 139.613 105.395 140.227 106.542 140.84C107.715 141.427 108.715 142.267 109.542 143.36C110.395 144.427 110.822 145.787 110.822 147.44C110.822 149.12 110.395 150.627 109.542 151.96C108.715 153.293 107.502 154.347 105.902 155.12C104.329 155.893 102.462 156.28 100.302 156.28ZM131.683 156.28C129.656 156.28 127.843 155.947 126.243 155.28C124.669 154.587 123.416 153.653 122.483 152.48C121.576 151.28 121.069 149.933 120.963 148.44H128.563C128.669 149.16 129.003 149.72 129.563 150.12C130.123 150.52 130.816 150.72 131.643 150.72C132.283 150.72 132.789 150.587 133.163 150.32C133.536 150.053 133.723 149.707 133.723 149.28C133.723 148.72 133.416 148.307 132.803 148.04C132.189 147.773 131.176 147.48 129.763 147.16C128.163 146.84 126.829 146.48 125.763 146.08C124.696 145.68 123.763 145.027 122.963 144.12C122.189 143.213 121.803 141.987 121.803 140.44C121.803 139.107 122.163 137.907 122.883 136.84C123.603 135.747 124.656 134.88 126.043 134.24C127.456 133.6 129.149 133.28 131.123 133.28C134.056 133.28 136.363 134 138.043 135.44C139.723 136.88 140.696 138.773 140.963 141.12H133.883C133.749 140.4 133.429 139.853 132.923 139.48C132.443 139.08 131.789 138.88 130.963 138.88C130.323 138.88 129.829 139 129.483 139.24C129.163 139.48 129.003 139.813 129.003 140.24C129.003 140.773 129.309 141.187 129.923 141.48C130.536 141.747 131.523 142.027 132.883 142.32C134.509 142.667 135.856 143.053 136.923 143.48C138.016 143.907 138.963 144.6 139.763 145.56C140.589 146.493 141.003 147.773 141.003 149.4C141.003 150.707 140.616 151.88 139.843 152.92C139.096 153.96 138.016 154.787 136.603 155.4C135.216 155.987 133.576 156.28 131.683 156.28ZM166.297 144.52C166.297 145.133 166.257 145.747 166.177 146.36H151.337C151.417 147.587 151.751 148.507 152.337 149.12C152.951 149.707 153.724 150 154.657 150C155.964 150 156.897 149.413 157.457 148.24H165.817C165.471 149.787 164.791 151.173 163.777 152.4C162.791 153.6 161.537 154.547 160.017 155.24C158.497 155.933 156.817 156.28 154.977 156.28C152.764 156.28 150.791 155.813 149.057 154.88C147.351 153.947 146.004 152.613 145.017 150.88C144.057 149.147 143.577 147.107 143.577 144.76C143.577 142.413 144.057 140.387 145.017 138.68C145.977 136.947 147.311 135.613 149.017 134.68C150.751 133.747 152.737 133.28 154.977 133.28C157.191 133.28 159.151 133.733 160.857 134.64C162.564 135.547 163.897 136.853 164.857 138.56C165.817 140.24 166.297 142.227 166.297 144.52ZM158.297 142.56C158.297 141.6 157.977 140.853 157.337 140.32C156.697 139.76 155.897 139.48 154.937 139.48C153.977 139.48 153.191 139.747 152.577 140.28C151.964 140.787 151.564 141.547 151.377 142.56H158.297ZM198.826 133.36C201.652 133.36 203.866 134.213 205.466 135.92C207.092 137.627 207.906 139.96 207.906 142.92V156H200.066V143.96C200.066 142.76 199.732 141.827 199.066 141.16C198.399 140.493 197.492 140.16 196.346 140.16C195.199 140.16 194.292 140.493 193.626 141.16C192.959 141.827 192.626 142.76 192.626 143.96V156H184.786V143.96C184.786 142.76 184.452 141.827 183.786 141.16C183.146 140.493 182.252 140.16 181.106 140.16C179.932 140.16 179.012 140.493 178.346 141.16C177.679 141.827 177.346 142.76 177.346 143.96V156H169.506V133.56H177.346V136.52C178.039 135.56 178.932 134.8 180.026 134.24C181.146 133.653 182.426 133.36 183.866 133.36C185.519 133.36 186.986 133.72 188.266 134.44C189.572 135.16 190.599 136.173 191.346 137.48C192.146 136.253 193.199 135.267 194.506 134.52C195.812 133.747 197.252 133.36 198.826 133.36ZM230.297 156.28C228.057 156.28 226.044 155.813 224.257 154.88C222.497 153.947 221.111 152.613 220.097 150.88C219.084 149.147 218.577 147.107 218.577 144.76C218.577 142.44 219.084 140.413 220.097 138.68C221.137 136.947 222.537 135.613 224.297 134.68C226.084 133.747 228.097 133.28 230.337 133.28C232.577 133.28 234.577 133.747 236.337 134.68C238.124 135.613 239.524 136.947 240.537 138.68C241.577 140.413 242.097 142.44 242.097 144.76C242.097 147.08 241.577 149.12 240.537 150.88C239.524 152.613 238.124 153.947 236.337 154.88C234.551 155.813 232.537 156.28 230.297 156.28ZM230.297 149.48C231.391 149.48 232.297 149.08 233.017 148.28C233.764 147.453 234.137 146.28 234.137 144.76C234.137 143.24 233.764 142.08 233.017 141.28C232.297 140.48 231.404 140.08 230.337 140.08C229.271 140.08 228.377 140.48 227.657 141.28C226.937 142.08 226.577 143.24 226.577 144.76C226.577 146.307 226.924 147.48 227.617 148.28C228.311 149.08 229.204 149.48 230.297 149.48ZM272.063 127.8V134.04H260.783V139H269.103V144.96H260.783V156H252.943V127.8H272.063ZM283.205 127.8V156H275.365V127.8H283.205ZM305.67 137.08C305.216 136.333 304.59 135.76 303.79 135.36C303.016 134.96 302.096 134.76 301.03 134.76C299.056 134.76 297.496 135.4 296.35 136.68C295.23 137.96 294.67 139.68 294.67 141.84C294.67 144.267 295.27 146.12 296.47 147.4C297.696 148.653 299.47 149.28 301.79 149.28C304.536 149.28 306.496 148.04 307.67 145.56H299.79V139.92H314.43V147.52C313.816 149.013 312.91 150.413 311.71 151.72C310.536 153.027 309.043 154.107 307.23 154.96C305.416 155.787 303.35 156.2 301.03 156.2C298.203 156.2 295.696 155.6 293.51 154.4C291.35 153.173 289.67 151.48 288.47 149.32C287.296 147.133 286.71 144.64 286.71 141.84C286.71 139.067 287.296 136.6 288.47 134.44C289.67 132.253 291.35 130.56 293.51 129.36C295.67 128.133 298.163 127.52 300.99 127.52C304.536 127.52 307.47 128.373 309.79 130.08C312.11 131.787 313.55 134.12 314.11 137.08H305.67ZM350.863 127.8V156H343.023V140.44L337.703 156H331.143L325.783 140.32V156H317.943V127.8H327.423L334.503 146.12L341.423 127.8H350.863ZM373.166 151.4H363.166L361.646 156H353.406L363.686 127.8H372.726L382.966 156H374.686L373.166 151.4ZM371.206 145.4L368.166 136.28L365.166 145.4H371.206ZM394.081 125.72C396.988 125.72 399.321 126.467 401.081 127.96C402.841 129.453 403.721 131.587 403.721 134.36C403.721 136.787 402.908 138.707 401.281 140.12C399.681 141.533 397.561 142.267 394.921 142.32L394.721 145.24H387.801L387.561 137.28H390.441C392.255 137.28 393.641 137.08 394.601 136.68C395.561 136.253 396.041 135.507 396.041 134.44C396.041 133.72 395.841 133.16 395.441 132.76C395.068 132.333 394.548 132.12 393.881 132.12C393.135 132.12 392.561 132.347 392.161 132.8C391.788 133.227 391.601 133.813 391.601 134.56H384.201C384.148 132.933 384.481 131.453 385.201 130.12C385.948 128.76 387.068 127.693 388.561 126.92C390.055 126.12 391.895 125.72 394.081 125.72ZM391.321 156.32C389.935 156.32 388.815 155.947 387.961 155.2C387.135 154.427 386.721 153.453 386.721 152.28C386.721 151.107 387.135 150.133 387.961 149.36C388.815 148.587 389.935 148.2 391.321 148.2C392.681 148.2 393.775 148.587 394.601 149.36C395.455 150.133 395.881 151.107 395.881 152.28C395.881 153.427 395.455 154.387 394.601 155.16C393.775 155.933 392.681 156.32 391.321 156.32Z" fill="black"/>
<path d="M11.754 195.454L7.02 208H5.13L0.396 195.454H2.142L6.084 206.272L10.026 195.454H11.754ZM12.9381 203.032C12.9381 202.024 13.1421 201.142 13.5501 200.386C13.9581 199.618 14.5161 199.024 15.2241 198.604C15.9441 198.184 16.7421 197.974 17.6181 197.974C18.4821 197.974 19.2321 198.16 19.8681 198.532C20.5041 198.904 20.9781 199.372 21.2901 199.936V198.136H22.9461V208H21.2901V206.164C20.9661 206.74 20.4801 207.22 19.8321 207.604C19.1961 207.976 18.4521 208.162 17.6001 208.162C16.7241 208.162 15.9321 207.946 15.2241 207.514C14.5161 207.082 13.9581 206.476 13.5501 205.696C13.1421 204.916 12.9381 204.028 12.9381 203.032ZM21.2901 203.05C21.2901 202.306 21.1401 201.658 20.8401 201.106C20.5401 200.554 20.1321 200.134 19.6161 199.846C19.1121 199.546 18.5541 199.396 17.9421 199.396C17.3301 199.396 16.7721 199.54 16.2681 199.828C15.7641 200.116 15.3621 200.536 15.0621 201.088C14.7621 201.64 14.6121 202.288 14.6121 203.032C14.6121 203.788 14.7621 204.448 15.0621 205.012C15.3621 205.564 15.7641 205.99 16.2681 206.29C16.7721 206.578 17.3301 206.722 17.9421 206.722C18.5541 206.722 19.1121 206.578 19.6161 206.29C20.1321 205.99 20.5401 205.564 20.8401 205.012C21.1401 204.448 21.2901 203.794 21.2901 203.05ZM37.5761 197.956C38.3441 197.956 39.0281 198.118 39.6281 198.442C40.2281 198.754 40.7021 199.228 41.0501 199.864C41.3981 200.5 41.5721 201.274 41.5721 202.186V208H39.9521V202.42C39.9521 201.436 39.7061 200.686 39.2141 200.17C38.7341 199.642 38.0801 199.378 37.2521 199.378C36.4001 199.378 35.7221 199.654 35.2181 200.206C34.7141 200.746 34.4621 201.532 34.4621 202.564V208H32.8421V202.42C32.8421 201.436 32.5961 200.686 32.1041 200.17C31.6241 199.642 30.9701 199.378 30.1421 199.378C29.2901 199.378 28.6121 199.654 28.1081 200.206C27.6041 200.746 27.3521 201.532 27.3521 202.564V208H25.7141V198.136H27.3521V199.558C27.6761 199.042 28.1081 198.646 28.6481 198.37C29.2001 198.094 29.8061 197.956 30.4661 197.956C31.2941 197.956 32.0261 198.142 32.6621 198.514C33.2981 198.886 33.7721 199.432 34.0841 200.152C34.3601 199.456 34.8161 198.916 35.4521 198.532C36.0881 198.148 36.7961 197.956 37.5761 197.956ZM48.561 208.162C47.637 208.162 46.797 207.952 46.041 207.532C45.297 207.112 44.709 206.518 44.277 205.75C43.857 204.97 43.647 204.07 43.647 203.05C43.647 202.042 43.863 201.154 44.295 200.386C44.739 199.606 45.339 199.012 46.095 198.604C46.851 198.184 47.697 197.974 48.633 197.974C49.569 197.974 50.415 198.184 51.171 198.604C51.927 199.012 52.521 199.6 52.953 200.368C53.397 201.136 53.619 202.03 53.619 203.05C53.619 204.07 53.391 204.97 52.935 205.75C52.491 206.518 51.885 207.112 51.117 207.532C50.349 207.952 49.497 208.162 48.561 208.162ZM48.561 206.722C49.149 206.722 49.701 206.584 50.217 206.308C50.733 206.032 51.147 205.618 51.459 205.066C51.783 204.514 51.945 203.842 51.945 203.05C51.945 202.258 51.789 201.586 51.477 201.034C51.165 200.482 50.757 200.074 50.253 199.81C49.749 199.534 49.203 199.396 48.615 199.396C48.015 199.396 47.463 199.534 46.959 199.81C46.467 200.074 46.071 200.482 45.771 201.034C45.471 201.586 45.321 202.258 45.321 203.05C45.321 203.854 45.465 204.532 45.753 205.084C46.053 205.636 46.449 206.05 46.941 206.326C47.433 206.59 47.973 206.722 48.561 206.722ZM59.2647 208.162C58.5087 208.162 57.8307 208.036 57.2307 207.784C56.6307 207.52 56.1567 207.16 55.8087 206.704C55.4607 206.236 55.2687 205.702 55.2327 205.102H56.9247C56.9727 205.594 57.2007 205.996 57.6087 206.308C58.0287 206.62 58.5747 206.776 59.2467 206.776C59.8707 206.776 60.3627 206.638 60.7227 206.362C61.0827 206.086 61.2627 205.738 61.2627 205.318C61.2627 204.886 61.0707 204.568 60.6867 204.364C60.3027 204.148 59.7087 203.938 58.9047 203.734C58.1727 203.542 57.5727 203.35 57.1047 203.158C56.6487 202.954 56.2527 202.66 55.9167 202.276C55.5927 201.88 55.4307 201.364 55.4307 200.728C55.4307 200.224 55.5807 199.762 55.8807 199.342C56.1807 198.922 56.6067 198.592 57.1587 198.352C57.7107 198.1 58.3407 197.974 59.0487 197.974C60.1407 197.974 61.0227 198.25 61.6947 198.802C62.3667 199.354 62.7267 200.11 62.7747 201.07H61.1367C61.1007 200.554 60.8907 200.14 60.5067 199.828C60.1347 199.516 59.6307 199.36 58.9947 199.36C58.4067 199.36 57.9387 199.486 57.5907 199.738C57.2427 199.99 57.0687 200.32 57.0687 200.728C57.0687 201.052 57.1707 201.322 57.3747 201.538C57.5907 201.742 57.8547 201.91 58.1667 202.042C58.4907 202.162 58.9347 202.3 59.4987 202.456C60.2067 202.648 60.7827 202.84 61.2267 203.032C61.6707 203.212 62.0487 203.488 62.3607 203.86C62.6847 204.232 62.8527 204.718 62.8647 205.318C62.8647 205.858 62.7147 206.344 62.4147 206.776C62.1147 207.208 61.6887 207.55 61.1367 207.802C60.5967 208.042 59.9727 208.162 59.2647 208.162ZM71.9738 199.486V205.3C71.9738 205.78 72.0758 206.122 72.2798 206.326C72.4838 206.518 72.8378 206.614 73.3418 206.614H74.5478V208H73.0718C72.1598 208 71.4758 207.79 71.0198 207.37C70.5638 206.95 70.3358 206.26 70.3358 205.3V199.486H69.0578V198.136H70.3358V195.652H71.9738V198.136H74.5478V199.486H71.9738ZM85.5325 202.69C85.5325 203.002 85.5145 203.332 85.4785 203.68H77.5945C77.6545 204.652 77.9845 205.414 78.5845 205.966C79.1965 206.506 79.9345 206.776 80.7985 206.776C81.5065 206.776 82.0945 206.614 82.5625 206.29C83.0425 205.954 83.3785 205.51 83.5705 204.958H85.3345C85.0705 205.906 84.5425 206.68 83.7505 207.28C82.9585 207.868 81.9745 208.162 80.7985 208.162C79.8625 208.162 79.0225 207.952 78.2785 207.532C77.5465 207.112 76.9705 206.518 76.5505 205.75C76.1305 204.97 75.9205 204.07 75.9205 203.05C75.9205 202.03 76.1245 201.136 76.5325 200.368C76.9405 199.6 77.5105 199.012 78.2425 198.604C78.9865 198.184 79.8385 197.974 80.7985 197.974C81.7345 197.974 82.5625 198.178 83.2825 198.586C84.0025 198.994 84.5545 199.558 84.9385 200.278C85.3345 200.986 85.5325 201.79 85.5325 202.69ZM83.8405 202.348C83.8405 201.724 83.7025 201.19 83.4265 200.746C83.1505 200.29 82.7725 199.948 82.2925 199.72C81.8245 199.48 81.3025 199.36 80.7265 199.36C79.8985 199.36 79.1905 199.624 78.6025 200.152C78.0265 200.68 77.6965 201.412 77.6125 202.348H83.8405ZM91.1866 208.162C90.4306 208.162 89.7526 208.036 89.1526 207.784C88.5526 207.52 88.0786 207.16 87.7306 206.704C87.3826 206.236 87.1906 205.702 87.1546 205.102H88.8466C88.8946 205.594 89.1226 205.996 89.5306 206.308C89.9506 206.62 90.4966 206.776 91.1686 206.776C91.7926 206.776 92.2846 206.638 92.6446 206.362C93.0046 206.086 93.1846 205.738 93.1846 205.318C93.1846 204.886 92.9926 204.568 92.6086 204.364C92.2246 204.148 91.6306 203.938 90.8266 203.734C90.0946 203.542 89.4946 203.35 89.0266 203.158C88.5706 202.954 88.1746 202.66 87.8386 202.276C87.5146 201.88 87.3526 201.364 87.3526 200.728C87.3526 200.224 87.5026 199.762 87.8026 199.342C88.1026 198.922 88.5286 198.592 89.0806 198.352C89.6326 198.1 90.2626 197.974 90.9706 197.974C92.0626 197.974 92.9446 198.25 93.6166 198.802C94.2886 199.354 94.6486 200.11 94.6966 201.07H93.0586C93.0226 200.554 92.8126 200.14 92.4286 199.828C92.0566 199.516 91.5526 199.36 90.9166 199.36C90.3286 199.36 89.8606 199.486 89.5126 199.738C89.1646 199.99 88.9906 200.32 88.9906 200.728C88.9906 201.052 89.0926 201.322 89.2966 201.538C89.5126 201.742 89.7766 201.91 90.0886 202.042C90.4126 202.162 90.8566 202.3 91.4206 202.456C92.1286 202.648 92.7046 202.84 93.1486 203.032C93.5926 203.212 93.9706 203.488 94.2826 203.86C94.6066 204.232 94.7746 204.718 94.7866 205.318C94.7866 205.858 94.6366 206.344 94.3366 206.776C94.0366 207.208 93.6106 207.55 93.0586 207.802C92.5186 208.042 91.8946 208.162 91.1866 208.162ZM99.0969 199.486V205.3C99.0969 205.78 99.1989 206.122 99.4029 206.326C99.6069 206.518 99.9609 206.614 100.465 206.614H101.671V208H100.195C99.2829 208 98.5989 207.79 98.1429 207.37C97.6869 206.95 97.4589 206.26 97.4589 205.3V199.486H96.1809V198.136H97.4589V195.652H99.0969V198.136H101.671V199.486H99.0969ZM103.044 203.032C103.044 202.024 103.248 201.142 103.656 200.386C104.064 199.618 104.622 199.024 105.33 198.604C106.05 198.184 106.848 197.974 107.724 197.974C108.588 197.974 109.338 198.16 109.974 198.532C110.61 198.904 111.084 199.372 111.396 199.936V198.136H113.052V208H111.396V206.164C111.072 206.74 110.586 207.22 109.938 207.604C109.302 207.976 108.558 208.162 107.706 208.162C106.83 208.162 106.038 207.946 105.33 207.514C104.622 207.082 104.064 206.476 103.656 205.696C103.248 204.916 103.044 204.028 103.044 203.032ZM111.396 203.05C111.396 202.306 111.246 201.658 110.946 201.106C110.646 200.554 110.238 200.134 109.722 199.846C109.218 199.546 108.66 199.396 108.048 199.396C107.436 199.396 106.878 199.54 106.374 199.828C105.87 200.116 105.468 200.536 105.168 201.088C104.868 201.64 104.718 202.288 104.718 203.032C104.718 203.788 104.868 204.448 105.168 205.012C105.468 205.564 105.87 205.99 106.374 206.29C106.878 206.578 107.436 206.722 108.048 206.722C108.66 206.722 109.218 206.578 109.722 206.29C110.238 205.99 110.646 205.564 110.946 205.012C111.246 204.448 111.396 203.794 111.396 203.05ZM117.458 199.738C117.746 199.174 118.154 198.736 118.682 198.424C119.222 198.112 119.876 197.956 120.644 197.956V199.648H120.212C118.376 199.648 117.458 200.644 117.458 202.636V208H115.82V198.136H117.458V199.738ZM128.179 196.534C127.867 196.534 127.603 196.426 127.387 196.21C127.171 195.994 127.063 195.73 127.063 195.418C127.063 195.106 127.171 194.842 127.387 194.626C127.603 194.41 127.867 194.302 128.179 194.302C128.479 194.302 128.731 194.41 128.935 194.626C129.151 194.842 129.259 195.106 129.259 195.418C129.259 195.73 129.151 195.994 128.935 196.21C128.731 196.426 128.479 196.534 128.179 196.534ZM128.971 198.136V208H127.333V198.136H128.971ZM135.255 208.162C134.499 208.162 133.821 208.036 133.221 207.784C132.621 207.52 132.147 207.16 131.799 206.704C131.451 206.236 131.259 205.702 131.223 205.102H132.915C132.963 205.594 133.191 205.996 133.599 206.308C134.019 206.62 134.565 206.776 135.237 206.776C135.861 206.776 136.353 206.638 136.713 206.362C137.073 206.086 137.253 205.738 137.253 205.318C137.253 204.886 137.061 204.568 136.677 204.364C136.293 204.148 135.699 203.938 134.895 203.734C134.163 203.542 133.563 203.35 133.095 203.158C132.639 202.954 132.243 202.66 131.907 202.276C131.583 201.88 131.421 201.364 131.421 200.728C131.421 200.224 131.571 199.762 131.871 199.342C132.171 198.922 132.597 198.592 133.149 198.352C133.701 198.1 134.331 197.974 135.039 197.974C136.131 197.974 137.013 198.25 137.685 198.802C138.357 199.354 138.717 200.11 138.765 201.07H137.127C137.091 200.554 136.881 200.14 136.497 199.828C136.125 199.516 135.621 199.36 134.985 199.36C134.397 199.36 133.929 199.486 133.581 199.738C133.233 199.99 133.059 200.32 133.059 200.728C133.059 201.052 133.161 201.322 133.365 201.538C133.581 201.742 133.845 201.91 134.157 202.042C134.481 202.162 134.925 202.3 135.489 202.456C136.197 202.648 136.773 202.84 137.217 203.032C137.661 203.212 138.039 203.488 138.351 203.86C138.675 204.232 138.843 204.718 138.855 205.318C138.855 205.858 138.705 206.344 138.405 206.776C138.105 207.208 137.679 207.55 137.127 207.802C136.587 208.042 135.963 208.162 135.255 208.162ZM144.659 208.162C143.903 208.162 143.225 208.036 142.625 207.784C142.025 207.52 141.551 207.16 141.203 206.704C140.855 206.236 140.663 205.702 140.627 205.102H142.319C142.367 205.594 142.595 205.996 143.003 206.308C143.423 206.62 143.969 206.776 144.641 206.776C145.265 206.776 145.757 206.638 146.117 206.362C146.477 206.086 146.657 205.738 146.657 205.318C146.657 204.886 146.465 204.568 146.081 204.364C145.697 204.148 145.103 203.938 144.299 203.734C143.567 203.542 142.967 203.35 142.499 203.158C142.043 202.954 141.647 202.66 141.311 202.276C140.987 201.88 140.825 201.364 140.825 200.728C140.825 200.224 140.975 199.762 141.275 199.342C141.575 198.922 142.001 198.592 142.553 198.352C143.105 198.1 143.735 197.974 144.443 197.974C145.535 197.974 146.417 198.25 147.089 198.802C147.761 199.354 148.121 200.11 148.169 201.07H146.531C146.495 200.554 146.285 200.14 145.901 199.828C145.529 199.516 145.025 199.36 144.389 199.36C143.801 199.36 143.333 199.486 142.985 199.738C142.637 199.99 142.463 200.32 142.463 200.728C142.463 201.052 142.565 201.322 142.769 201.538C142.985 201.742 143.249 201.91 143.561 202.042C143.885 202.162 144.329 202.3 144.893 202.456C145.601 202.648 146.177 202.84 146.621 203.032C147.065 203.212 147.443 203.488 147.755 203.86C148.079 204.232 148.247 204.718 148.259 205.318C148.259 205.858 148.109 206.344 147.809 206.776C147.509 207.208 147.083 207.55 146.531 207.802C145.991 208.042 145.367 208.162 144.659 208.162ZM154.874 208.162C153.95 208.162 153.11 207.952 152.354 207.532C151.61 207.112 151.022 206.518 150.59 205.75C150.17 204.97 149.96 204.07 149.96 203.05C149.96 202.042 150.176 201.154 150.608 200.386C151.052 199.606 151.652 199.012 152.408 198.604C153.164 198.184 154.01 197.974 154.946 197.974C155.882 197.974 156.728 198.184 157.484 198.604C158.24 199.012 158.834 199.6 159.266 200.368C159.71 201.136 159.932 202.03 159.932 203.05C159.932 204.07 159.704 204.97 159.248 205.75C158.804 206.518 158.198 207.112 157.43 207.532C156.662 207.952 155.81 208.162 154.874 208.162ZM154.874 206.722C155.462 206.722 156.014 206.584 156.53 206.308C157.046 206.032 157.46 205.618 157.772 205.066C158.096 204.514 158.258 203.842 158.258 203.05C158.258 202.258 158.102 201.586 157.79 201.034C157.478 200.482 157.07 200.074 156.566 199.81C156.062 199.534 155.516 199.396 154.928 199.396C154.328 199.396 153.776 199.534 153.272 199.81C152.78 200.074 152.384 200.482 152.084 201.034C151.784 201.586 151.634 202.258 151.634 203.05C151.634 203.854 151.778 204.532 152.066 205.084C152.366 205.636 152.762 206.05 153.254 206.326C153.746 206.59 154.286 206.722 154.874 206.722ZM166.272 203.032C166.272 202.024 166.476 201.142 166.884 200.386C167.292 199.618 167.85 199.024 168.558 198.604C169.278 198.184 170.076 197.974 170.952 197.974C171.816 197.974 172.566 198.16 173.202 198.532C173.838 198.904 174.312 199.372 174.624 199.936V198.136H176.28V208H174.624V206.164C174.3 206.74 173.814 207.22 173.166 207.604C172.53 207.976 171.786 208.162 170.934 208.162C170.058 208.162 169.266 207.946 168.558 207.514C167.85 207.082 167.292 206.476 166.884 205.696C166.476 204.916 166.272 204.028 166.272 203.032ZM174.624 203.05C174.624 202.306 174.474 201.658 174.174 201.106C173.874 200.554 173.466 200.134 172.95 199.846C172.446 199.546 171.888 199.396 171.276 199.396C170.664 199.396 170.106 199.54 169.602 199.828C169.098 200.116 168.696 200.536 168.396 201.088C168.096 201.64 167.946 202.288 167.946 203.032C167.946 203.788 168.096 204.448 168.396 205.012C168.696 205.564 169.098 205.99 169.602 206.29C170.106 206.578 170.664 206.722 171.276 206.722C171.888 206.722 172.446 206.578 172.95 206.29C173.466 205.99 173.874 205.564 174.174 205.012C174.474 204.448 174.624 203.794 174.624 203.05ZM183.116 197.974C183.968 197.974 184.712 198.16 185.348 198.532C185.996 198.904 186.476 199.372 186.788 199.936V198.136H188.444V208.216C188.444 209.116 188.252 209.914 187.868 210.61C187.484 211.318 186.932 211.87 186.212 212.266C185.504 212.662 184.676 212.86 183.728 212.86C182.432 212.86 181.352 212.554 180.488 211.942C179.624 211.33 179.114 210.496 178.958 209.44H180.578C180.758 210.04 181.13 210.52 181.694 210.88C182.258 211.252 182.936 211.438 183.728 211.438C184.628 211.438 185.36 211.156 185.924 210.592C186.5 210.028 186.788 209.236 186.788 208.216V206.146C186.464 206.722 185.984 207.202 185.348 207.586C184.712 207.97 183.968 208.162 183.116 208.162C182.24 208.162 181.442 207.946 180.722 207.514C180.014 207.082 179.456 206.476 179.048 205.696C178.64 204.916 178.436 204.028 178.436 203.032C178.436 202.024 178.64 201.142 179.048 200.386C179.456 199.618 180.014 199.024 180.722 198.604C181.442 198.184 182.24 197.974 183.116 197.974ZM186.788 203.05C186.788 202.306 186.638 201.658 186.338 201.106C186.038 200.554 185.63 200.134 185.114 199.846C184.61 199.546 184.052 199.396 183.44 199.396C182.828 199.396 182.27 199.54 181.766 199.828C181.262 200.116 180.86 200.536 180.56 201.088C180.26 201.64 180.11 202.288 180.11 203.032C180.11 203.788 180.26 204.448 180.56 205.012C180.86 205.564 181.262 205.99 181.766 206.29C182.27 206.578 182.828 206.722 183.44 206.722C184.052 206.722 184.61 206.578 185.114 206.29C185.63 205.99 186.038 205.564 186.338 205.012C186.638 204.448 186.788 203.794 186.788 203.05ZM195.514 208.162C194.59 208.162 193.75 207.952 192.994 207.532C192.25 207.112 191.662 206.518 191.23 205.75C190.81 204.97 190.6 204.07 190.6 203.05C190.6 202.042 190.816 201.154 191.248 200.386C191.692 199.606 192.292 199.012 193.048 198.604C193.804 198.184 194.65 197.974 195.586 197.974C196.522 197.974 197.368 198.184 198.124 198.604C198.88 199.012 199.474 199.6 199.906 200.368C200.35 201.136 200.572 202.03 200.572 203.05C200.572 204.07 200.344 204.97 199.888 205.75C199.444 206.518 198.838 207.112 198.07 207.532C197.302 207.952 196.45 208.162 195.514 208.162ZM195.514 206.722C196.102 206.722 196.654 206.584 197.17 206.308C197.686 206.032 198.1 205.618 198.412 205.066C198.736 204.514 198.898 203.842 198.898 203.05C198.898 202.258 198.742 201.586 198.43 201.034C198.118 200.482 197.71 200.074 197.206 199.81C196.702 199.534 196.156 199.396 195.568 199.396C194.968 199.396 194.416 199.534 193.912 199.81C193.42 200.074 193.024 200.482 192.724 201.034C192.424 201.586 192.274 202.258 192.274 203.05C192.274 203.854 192.418 204.532 192.706 205.084C193.006 205.636 193.402 206.05 193.894 206.326C194.386 206.59 194.926 206.722 195.514 206.722ZM204.364 199.738C204.652 199.174 205.06 198.736 205.588 198.424C206.128 198.112 206.782 197.956 207.55 197.956V199.648H207.118C205.282 199.648 204.364 200.644 204.364 202.636V208H202.726V198.136H204.364V199.738ZM208.829 203.032C208.829 202.024 209.033 201.142 209.441 200.386C209.849 199.618 210.407 199.024 211.115 198.604C211.835 198.184 212.633 197.974 213.509 197.974C214.373 197.974 215.123 198.16 215.759 198.532C216.395 198.904 216.869 199.372 217.181 199.936V198.136H218.837V208H217.181V206.164C216.857 206.74 216.371 207.22 215.723 207.604C215.087 207.976 214.343 208.162 213.491 208.162C212.615 208.162 211.823 207.946 211.115 207.514C210.407 207.082 209.849 206.476 209.441 205.696C209.033 204.916 208.829 204.028 208.829 203.032ZM217.181 203.05C217.181 202.306 217.031 201.658 216.731 201.106C216.431 200.554 216.023 200.134 215.507 199.846C215.003 199.546 214.445 199.396 213.833 199.396C213.221 199.396 212.663 199.54 212.159 199.828C211.655 200.116 211.253 200.536 210.953 201.088C210.653 201.64 210.503 202.288 210.503 203.032C210.503 203.788 210.653 204.448 210.953 205.012C211.253 205.564 211.655 205.99 212.159 206.29C212.663 206.578 213.221 206.722 213.833 206.722C214.445 206.722 215.003 206.578 215.507 206.29C216.023 205.99 216.431 205.564 216.731 205.012C217.031 204.448 217.181 203.794 217.181 203.05ZM223.297 205.732L221.281 210.574H220.183L221.497 205.732H223.297ZM231.61 199.972C231.946 199.384 232.438 198.904 233.086 198.532C233.734 198.16 234.472 197.974 235.3 197.974C236.188 197.974 236.986 198.184 237.694 198.604C238.402 199.024 238.96 199.618 239.368 200.386C239.776 201.142 239.98 202.024 239.98 203.032C239.98 204.028 239.776 204.916 239.368 205.696C238.96 206.476 238.396 207.082 237.676 207.514C236.968 207.946 236.176 208.162 235.3 208.162C234.448 208.162 233.698 207.976 233.05 207.604C232.414 207.232 231.934 206.758 231.61 206.182V208H229.972V194.68H231.61V199.972ZM238.306 203.032C238.306 202.288 238.156 201.64 237.856 201.088C237.556 200.536 237.148 200.116 236.632 199.828C236.128 199.54 235.57 199.396 234.958 199.396C234.358 199.396 233.8 199.546 233.284 199.846C232.78 200.134 232.372 200.56 232.06 201.124C231.76 201.676 231.61 202.318 231.61 203.05C231.61 203.794 231.76 204.448 232.06 205.012C232.372 205.564 232.78 205.99 233.284 206.29C233.8 206.578 234.358 206.722 234.958 206.722C235.57 206.722 236.128 206.578 236.632 206.29C237.148 205.99 237.556 205.564 237.856 205.012C238.156 204.448 238.306 203.788 238.306 203.032ZM246.438 208.162C245.514 208.162 244.674 207.952 243.918 207.532C243.174 207.112 242.586 206.518 242.154 205.75C241.734 204.97 241.524 204.07 241.524 203.05C241.524 202.042 241.74 201.154 242.172 200.386C242.616 199.606 243.216 199.012 243.972 198.604C244.728 198.184 245.574 197.974 246.51 197.974C247.446 197.974 248.292 198.184 249.048 198.604C249.804 199.012 250.398 199.6 250.83 200.368C251.274 201.136 251.496 202.03 251.496 203.05C251.496 204.07 251.268 204.97 250.812 205.75C250.368 206.518 249.762 207.112 248.994 207.532C248.226 207.952 247.374 208.162 246.438 208.162ZM246.438 206.722C247.026 206.722 247.578 206.584 248.094 206.308C248.61 206.032 249.024 205.618 249.336 205.066C249.66 204.514 249.822 203.842 249.822 203.05C249.822 202.258 249.666 201.586 249.354 201.034C249.042 200.482 248.634 200.074 248.13 199.81C247.626 199.534 247.08 199.396 246.492 199.396C245.892 199.396 245.34 199.534 244.836 199.81C244.344 200.074 243.948 200.482 243.648 201.034C243.348 201.586 243.198 202.258 243.198 203.05C243.198 203.854 243.342 204.532 243.63 205.084C243.93 205.636 244.326 206.05 244.818 206.326C245.31 206.59 245.85 206.722 246.438 206.722ZM255.288 199.738C255.576 199.174 255.984 198.736 256.512 198.424C257.052 198.112 257.706 197.956 258.474 197.956V199.648H258.042C256.206 199.648 255.288 200.644 255.288 202.636V208H253.65V198.136H255.288V199.738ZM259.753 203.032C259.753 202.024 259.957 201.142 260.365 200.386C260.773 199.618 261.331 199.024 262.039 198.604C262.759 198.184 263.557 197.974 264.433 197.974C265.297 197.974 266.047 198.16 266.683 198.532C267.319 198.904 267.793 199.372 268.105 199.936V198.136H269.761V208H268.105V206.164C267.781 206.74 267.295 207.22 266.647 207.604C266.011 207.976 265.267 208.162 264.415 208.162C263.539 208.162 262.747 207.946 262.039 207.514C261.331 207.082 260.773 206.476 260.365 205.696C259.957 204.916 259.753 204.028 259.753 203.032ZM268.105 203.05C268.105 202.306 267.955 201.658 267.655 201.106C267.355 200.554 266.947 200.134 266.431 199.846C265.927 199.546 265.369 199.396 264.757 199.396C264.145 199.396 263.587 199.54 263.083 199.828C262.579 200.116 262.177 200.536 261.877 201.088C261.577 201.64 261.427 202.288 261.427 203.032C261.427 203.788 261.577 204.448 261.877 205.012C262.177 205.564 262.579 205.99 263.083 206.29C263.587 206.578 264.145 206.722 264.757 206.722C265.369 206.722 265.927 206.578 266.431 206.29C266.947 205.99 267.355 205.564 267.655 205.012C267.955 204.448 268.105 203.794 268.105 203.05ZM278.965 194.68V208H277.327V194.68H278.965ZM281.145 203.032C281.145 202.024 281.349 201.142 281.757 200.386C282.165 199.618 282.723 199.024 283.431 198.604C284.151 198.184 284.949 197.974 285.825 197.974C286.689 197.974 287.439 198.16 288.075 198.532C288.711 198.904 289.185 199.372 289.497 199.936V198.136H291.153V208H289.497V206.164C289.173 206.74 288.687 207.22 288.039 207.604C287.403 207.976 286.659 208.162 285.807 208.162C284.931 208.162 284.139 207.946 283.431 207.514C282.723 207.082 282.165 206.476 281.757 205.696C281.349 204.916 281.145 204.028 281.145 203.032ZM289.497 203.05C289.497 202.306 289.347 201.658 289.047 201.106C288.747 200.554 288.339 200.134 287.823 199.846C287.319 199.546 286.761 199.396 286.149 199.396C285.537 199.396 284.979 199.54 284.475 199.828C283.971 200.116 283.569 200.536 283.269 201.088C282.969 201.64 282.819 202.288 282.819 203.032C282.819 203.788 282.969 204.448 283.269 205.012C283.569 205.564 283.971 205.99 284.475 206.29C284.979 206.578 285.537 206.722 286.149 206.722C286.761 206.722 287.319 206.578 287.823 206.29C288.339 205.99 288.747 205.564 289.047 205.012C289.347 204.448 289.497 203.794 289.497 203.05ZM288.219 195.346L284.385 197.398V196.174L288.219 193.924V195.346ZM296.045 195.454L295.847 204.454H294.479L294.281 195.454H296.045ZM295.235 208.108C294.923 208.108 294.659 208 294.443 207.784C294.227 207.568 294.119 207.304 294.119 206.992C294.119 206.68 294.227 206.416 294.443 206.2C294.659 205.984 294.923 205.876 295.235 205.876C295.535 205.876 295.787 205.984 295.991 206.2C296.207 206.416 296.315 206.68 296.315 206.992C296.315 207.304 296.207 207.568 295.991 207.784C295.787 208 295.535 208.108 295.235 208.108Z" fill="black"/>
<rect y="273" width="201" height="55" rx="16" fill="#4ABBC2"/>
<path d="M32.978 294.364L28.496 307H24.644L20.162 294.364H23.438L26.57 303.904L29.72 294.364H32.978ZM33.6524 301.96C33.6524 300.928 33.8444 300.022 34.2284 299.242C34.6244 298.462 35.1584 297.862 35.8304 297.442C36.5024 297.022 37.2524 296.812 38.0804 296.812C38.7884 296.812 39.4064 296.956 39.9344 297.244C40.4744 297.532 40.8884 297.91 41.1764 298.378V296.956H44.2544V307H41.1764V305.578C40.8764 306.046 40.4564 306.424 39.9164 306.712C39.3884 307 38.7704 307.144 38.0624 307.144C37.2464 307.144 36.5024 306.934 35.8304 306.514C35.1584 306.082 34.6244 305.476 34.2284 304.696C33.8444 303.904 33.6524 302.992 33.6524 301.96ZM41.1764 301.978C41.1764 301.21 40.9604 300.604 40.5284 300.16C40.1084 299.716 39.5924 299.494 38.9804 299.494C38.3684 299.494 37.8464 299.716 37.4144 300.16C36.9944 300.592 36.7844 301.192 36.7844 301.96C36.7844 302.728 36.9944 303.34 37.4144 303.796C37.8464 304.24 38.3684 304.462 38.9804 304.462C39.5924 304.462 40.1084 304.24 40.5284 303.796C40.9604 303.352 41.1764 302.746 41.1764 301.978ZM59.2972 296.848C60.5452 296.848 61.5352 297.226 62.2672 297.982C63.0112 298.738 63.3832 299.788 63.3832 301.132V307H60.3232V301.546C60.3232 300.898 60.1492 300.4 59.8012 300.052C59.4652 299.692 58.9972 299.512 58.3972 299.512C57.7972 299.512 57.3232 299.692 56.9752 300.052C56.6392 300.4 56.4712 300.898 56.4712 301.546V307H53.4112V301.546C53.4112 300.898 53.2372 300.4 52.8892 300.052C52.5532 299.692 52.0852 299.512 51.4852 299.512C50.8852 299.512 50.4112 299.692 50.0632 300.052C49.7272 300.4 49.5592 300.898 49.5592 301.546V307H46.4812V296.956H49.5592V298.216C49.8712 297.796 50.2792 297.466 50.7832 297.226C51.2872 296.974 51.8572 296.848 52.4932 296.848C53.2492 296.848 53.9212 297.01 54.5092 297.334C55.1092 297.658 55.5772 298.12 55.9132 298.72C56.2612 298.168 56.7352 297.718 57.3352 297.37C57.9352 297.022 58.5892 296.848 59.2972 296.848ZM70.1079 307.144C69.1239 307.144 68.2359 306.934 67.4439 306.514C66.6639 306.094 66.0459 305.494 65.5899 304.714C65.1459 303.934 64.9239 303.022 64.9239 301.978C64.9239 300.946 65.1519 300.04 65.6079 299.26C66.0639 298.468 66.6879 297.862 67.4799 297.442C68.2719 297.022 69.1599 296.812 70.1439 296.812C71.1279 296.812 72.0159 297.022 72.8079 297.442C73.5999 297.862 74.2239 298.468 74.6799 299.26C75.1359 300.04 75.3639 300.946 75.3639 301.978C75.3639 303.01 75.1299 303.922 74.6619 304.714C74.2059 305.494 73.5759 306.094 72.7719 306.514C71.9799 306.934 71.0919 307.144 70.1079 307.144ZM70.1079 304.48C70.6959 304.48 71.1939 304.264 71.6019 303.832C72.0219 303.4 72.2319 302.782 72.2319 301.978C72.2319 301.174 72.0279 300.556 71.6199 300.124C71.2239 299.692 70.7319 299.476 70.1439 299.476C69.5439 299.476 69.0459 299.692 68.6499 300.124C68.2539 300.544 68.0559 301.162 68.0559 301.978C68.0559 302.782 68.2479 303.4 68.6319 303.832C69.0279 304.264 69.5199 304.48 70.1079 304.48ZM81.0829 307.144C80.2069 307.144 79.4269 306.994 78.7429 306.694C78.0589 306.394 77.5189 305.986 77.1229 305.47C76.7269 304.942 76.5049 304.354 76.4569 303.706H79.4989C79.5349 304.054 79.6969 304.336 79.9849 304.552C80.2729 304.768 80.6269 304.876 81.0469 304.876C81.4309 304.876 81.7249 304.804 81.9289 304.66C82.1449 304.504 82.2529 304.306 82.2529 304.066C82.2529 303.778 82.1029 303.568 81.8029 303.436C81.5029 303.292 81.0169 303.136 80.3449 302.968C79.6249 302.8 79.0249 302.626 78.5449 302.446C78.0649 302.254 77.6509 301.96 77.3029 301.564C76.9549 301.156 76.7809 300.61 76.7809 299.926C76.7809 299.35 76.9369 298.828 77.2489 298.36C77.5729 297.88 78.0409 297.502 78.6529 297.226C79.2769 296.95 80.0149 296.812 80.8669 296.812C82.1269 296.812 83.1169 297.124 83.8369 297.748C84.5689 298.372 84.9889 299.2 85.0969 300.232H82.2529C82.2049 299.884 82.0489 299.608 81.7849 299.404C81.5329 299.2 81.1969 299.098 80.7769 299.098C80.4169 299.098 80.1409 299.17 79.9489 299.314C79.7569 299.446 79.6609 299.632 79.6609 299.872C79.6609 300.16 79.8109 300.376 80.1109 300.52C80.4229 300.664 80.9029 300.808 81.5509 300.952C82.2949 301.144 82.9009 301.336 83.3689 301.528C83.8369 301.708 84.2449 302.008 84.5929 302.428C84.9529 302.836 85.1389 303.388 85.1509 304.084C85.1509 304.672 84.9829 305.2 84.6469 305.668C84.3229 306.124 83.8489 306.484 83.2249 306.748C82.6129 307.012 81.8989 307.144 81.0829 307.144ZM90.2364 301.978C90.2364 300.934 90.4464 300.022 90.8664 299.242C91.2984 298.462 91.8924 297.862 92.6484 297.442C93.4164 297.022 94.2924 296.812 95.2764 296.812C96.5364 296.812 97.5864 297.142 98.4264 297.802C99.2784 298.462 99.8364 299.392 100.1 300.592H96.8244C96.5484 299.824 96.0144 299.44 95.2224 299.44C94.6584 299.44 94.2084 299.662 93.8724 300.106C93.5364 300.538 93.3684 301.162 93.3684 301.978C93.3684 302.794 93.5364 303.424 93.8724 303.868C94.2084 304.3 94.6584 304.516 95.2224 304.516C96.0144 304.516 96.5484 304.132 96.8244 303.364H100.1C99.8364 304.54 99.2784 305.464 98.4264 306.136C97.5744 306.808 96.5244 307.144 95.2764 307.144C94.2924 307.144 93.4164 306.934 92.6484 306.514C91.8924 306.094 91.2984 305.494 90.8664 304.714C90.4464 303.934 90.2364 303.022 90.2364 301.978ZM106.319 307.144C105.335 307.144 104.447 306.934 103.655 306.514C102.875 306.094 102.257 305.494 101.801 304.714C101.357 303.934 101.135 303.022 101.135 301.978C101.135 300.946 101.363 300.04 101.819 299.26C102.275 298.468 102.899 297.862 103.691 297.442C104.483 297.022 105.371 296.812 106.355 296.812C107.339 296.812 108.227 297.022 109.019 297.442C109.811 297.862 110.435 298.468 110.891 299.26C111.347 300.04 111.575 300.946 111.575 301.978C111.575 303.01 111.341 303.922 110.873 304.714C110.417 305.494 109.787 306.094 108.983 306.514C108.191 306.934 107.303 307.144 106.319 307.144ZM106.319 304.48C106.907 304.48 107.405 304.264 107.813 303.832C108.233 303.4 108.443 302.782 108.443 301.978C108.443 301.174 108.239 300.556 107.831 300.124C107.435 299.692 106.943 299.476 106.355 299.476C105.755 299.476 105.257 299.692 104.861 300.124C104.465 300.544 104.267 301.162 104.267 301.978C104.267 302.782 104.459 303.4 104.843 303.832C105.239 304.264 105.731 304.48 106.319 304.48ZM126.024 296.848C127.272 296.848 128.262 297.226 128.994 297.982C129.738 298.738 130.11 299.788 130.11 301.132V307H127.05V301.546C127.05 300.898 126.876 300.4 126.528 300.052C126.192 299.692 125.724 299.512 125.124 299.512C124.524 299.512 124.05 299.692 123.702 300.052C123.366 300.4 123.198 300.898 123.198 301.546V307H120.138V301.546C120.138 300.898 119.964 300.4 119.616 300.052C119.28 299.692 118.812 299.512 118.212 299.512C117.612 299.512 117.138 299.692 116.79 300.052C116.454 300.4 116.286 300.898 116.286 301.546V307H113.208V296.956H116.286V298.216C116.598 297.796 117.006 297.466 117.51 297.226C118.014 296.974 118.584 296.848 119.22 296.848C119.976 296.848 120.648 297.01 121.236 297.334C121.836 297.658 122.304 298.12 122.64 298.72C122.988 298.168 123.462 297.718 124.062 297.37C124.662 297.022 125.316 296.848 126.024 296.848ZM141.73 301.816C141.73 302.104 141.712 302.404 141.676 302.716H134.71C134.758 303.34 134.956 303.82 135.304 304.156C135.664 304.48 136.102 304.642 136.618 304.642C137.386 304.642 137.92 304.318 138.22 303.67H141.496C141.328 304.33 141.022 304.924 140.578 305.452C140.146 305.98 139.6 306.394 138.94 306.694C138.28 306.994 137.542 307.144 136.726 307.144C135.742 307.144 134.866 306.934 134.098 306.514C133.33 306.094 132.73 305.494 132.298 304.714C131.866 303.934 131.65 303.022 131.65 301.978C131.65 300.934 131.86 300.022 132.28 299.242C132.712 298.462 133.312 297.862 134.08 297.442C134.848 297.022 135.73 296.812 136.726 296.812C137.698 296.812 138.562 297.016 139.318 297.424C140.074 297.832 140.662 298.414 141.082 299.17C141.514 299.926 141.73 300.808 141.73 301.816ZM138.58 301.006C138.58 300.478 138.4 300.058 138.04 299.746C137.68 299.434 137.23 299.278 136.69 299.278C136.174 299.278 135.736 299.428 135.376 299.728C135.028 300.028 134.812 300.454 134.728 301.006H138.58ZM147.728 304.516C148.52 304.516 149.054 304.132 149.33 303.364H152.606C152.378 304.384 151.922 305.218 151.238 305.866C150.554 306.514 149.702 306.916 148.682 307.072V307.738C149.306 307.738 149.852 307.906 150.32 308.242C150.788 308.59 151.022 309.106 151.022 309.79C151.022 310.474 150.776 310.99 150.284 311.338C149.792 311.698 149.204 311.878 148.52 311.878H145.748V310.186H148.106C148.346 310.186 148.526 310.15 148.646 310.078C148.766 310.006 148.826 309.886 148.826 309.718C148.826 309.55 148.766 309.43 148.646 309.358C148.526 309.298 148.346 309.268 148.106 309.268H146.828V307.072C145.592 306.88 144.602 306.334 143.858 305.434C143.114 304.522 142.742 303.37 142.742 301.978C142.742 300.934 142.952 300.022 143.372 299.242C143.804 298.462 144.398 297.862 145.154 297.442C145.922 297.022 146.798 296.812 147.782 296.812C149.042 296.812 150.092 297.142 150.932 297.802C151.784 298.462 152.342 299.392 152.606 300.592H149.33C149.054 299.824 148.52 299.44 147.728 299.44C147.164 299.44 146.714 299.662 146.378 300.106C146.042 300.538 145.874 301.162 145.874 301.978C145.874 302.794 146.042 303.424 146.378 303.868C146.714 304.3 147.164 304.516 147.728 304.516ZM153.641 301.96C153.641 300.928 153.833 300.022 154.217 299.242C154.613 298.462 155.147 297.862 155.819 297.442C156.491 297.022 157.241 296.812 158.069 296.812C158.777 296.812 159.395 296.956 159.923 297.244C160.463 297.532 160.877 297.91 161.165 298.378V296.956H164.243V307H161.165V305.578C160.865 306.046 160.445 306.424 159.905 306.712C159.377 307 158.759 307.144 158.051 307.144C157.235 307.144 156.491 306.934 155.819 306.514C155.147 306.082 154.613 305.476 154.217 304.696C153.833 303.904 153.641 302.992 153.641 301.96ZM161.165 301.978C161.165 301.21 160.949 300.604 160.517 300.16C160.097 299.716 159.581 299.494 158.969 299.494C158.357 299.494 157.835 299.716 157.403 300.16C156.983 300.592 156.773 301.192 156.773 301.96C156.773 302.728 156.983 303.34 157.403 303.796C157.835 304.24 158.357 304.462 158.969 304.462C159.581 304.462 160.097 304.24 160.517 303.796C160.949 303.352 161.165 302.746 161.165 301.978ZM169.548 298.63C169.908 298.078 170.358 297.646 170.898 297.334C171.438 297.01 172.038 296.848 172.698 296.848V300.106H171.852C171.084 300.106 170.508 300.274 170.124 300.61C169.74 300.934 169.548 301.51 169.548 302.338V307H166.47V296.956H169.548V298.63ZM178.219 293.914L177.859 302.536H175.249L174.889 293.914H178.219ZM176.599 307.144C176.059 307.144 175.615 306.988 175.267 306.676C174.931 306.352 174.763 305.956 174.763 305.488C174.763 305.008 174.931 304.606 175.267 304.282C175.615 303.958 176.059 303.796 176.599 303.796C177.127 303.796 177.559 303.958 177.895 304.282C178.243 304.606 178.417 305.008 178.417 305.488C178.417 305.956 178.243 306.352 177.895 306.676C177.559 306.988 177.127 307.144 176.599 307.144Z" fill="black"/>
<rect x="218" y="274" width="161" height="53" rx="15" stroke="#4ABBC2" stroke-width="2"/>
<path d="M237.918 297.568C237.966 296.284 238.386 295.294 239.178 294.598C239.97 293.902 241.044 293.554 242.4 293.554C243.3 293.554 244.068 293.71 244.704 294.022C245.352 294.334 245.838 294.76 246.162 295.3C246.498 295.84 246.666 296.446 246.666 297.118C246.666 297.91 246.468 298.558 246.072 299.062C245.676 299.554 245.214 299.89 244.686 300.07V300.142C245.37 300.37 245.91 300.748 246.306 301.276C246.702 301.804 246.9 302.482 246.9 303.31C246.9 304.054 246.726 304.714 246.378 305.29C246.042 305.854 245.544 306.298 244.884 306.622C244.236 306.946 243.462 307.108 242.562 307.108C241.122 307.108 239.97 306.754 239.106 306.046C238.254 305.338 237.804 304.27 237.756 302.842H240.744C240.756 303.37 240.906 303.79 241.194 304.102C241.482 304.402 241.902 304.552 242.454 304.552C242.922 304.552 243.282 304.42 243.534 304.156C243.798 303.88 243.93 303.52 243.93 303.076C243.93 302.5 243.744 302.086 243.372 301.834C243.012 301.57 242.43 301.438 241.626 301.438H241.05V298.936H241.626C242.238 298.936 242.73 298.834 243.102 298.63C243.486 298.414 243.678 298.036 243.678 297.496C243.678 297.064 243.558 296.728 243.318 296.488C243.078 296.248 242.748 296.128 242.328 296.128C241.872 296.128 241.53 296.266 241.302 296.542C241.086 296.818 240.96 297.16 240.924 297.568H237.918ZM248.708 300.25C248.708 298.186 249.104 296.56 249.896 295.372C250.7 294.184 251.99 293.59 253.766 293.59C255.542 293.59 256.826 294.184 257.618 295.372C258.422 296.56 258.824 298.186 258.824 300.25C258.824 302.338 258.422 303.976 257.618 305.164C256.826 306.352 255.542 306.946 253.766 306.946C251.99 306.946 250.7 306.352 249.896 305.164C249.104 303.976 248.708 302.338 248.708 300.25ZM255.8 300.25C255.8 299.038 255.668 298.108 255.404 297.46C255.14 296.8 254.594 296.47 253.766 296.47C252.938 296.47 252.392 296.8 252.128 297.46C251.864 298.108 251.732 299.038 251.732 300.25C251.732 301.066 251.78 301.744 251.876 302.284C251.972 302.812 252.164 303.244 252.452 303.58C252.752 303.904 253.19 304.066 253.766 304.066C254.342 304.066 254.774 303.904 255.062 303.58C255.362 303.244 255.56 302.812 255.656 302.284C255.752 301.744 255.8 301.066 255.8 300.25ZM277.387 296.848C278.635 296.848 279.625 297.226 280.357 297.982C281.101 298.738 281.473 299.788 281.473 301.132V307H278.413V301.546C278.413 300.898 278.239 300.4 277.891 300.052C277.555 299.692 277.087 299.512 276.487 299.512C275.887 299.512 275.413 299.692 275.065 300.052C274.729 300.4 274.561 300.898 274.561 301.546V307H271.501V301.546C271.501 300.898 271.327 300.4 270.979 300.052C270.643 299.692 270.175 299.512 269.575 299.512C268.975 299.512 268.501 299.692 268.153 300.052C267.817 300.4 267.649 300.898 267.649 301.546V307H264.571V296.956H267.649V298.216C267.961 297.796 268.369 297.466 268.873 297.226C269.377 296.974 269.947 296.848 270.583 296.848C271.339 296.848 272.011 297.01 272.599 297.334C273.199 297.658 273.667 298.12 274.003 298.72C274.351 298.168 274.825 297.718 275.425 297.37C276.025 297.022 276.679 296.848 277.387 296.848ZM285.174 295.912C284.634 295.912 284.19 295.756 283.842 295.444C283.506 295.12 283.338 294.724 283.338 294.256C283.338 293.776 283.506 293.38 283.842 293.068C284.19 292.744 284.634 292.582 285.174 292.582C285.702 292.582 286.134 292.744 286.47 293.068C286.818 293.38 286.992 293.776 286.992 294.256C286.992 294.724 286.818 295.12 286.47 295.444C286.134 295.756 285.702 295.912 285.174 295.912ZM286.704 296.956V307H283.626V296.956H286.704ZM295.054 296.848C296.23 296.848 297.166 297.232 297.862 298C298.57 298.756 298.924 299.8 298.924 301.132V307H295.864V301.546C295.864 300.874 295.69 300.352 295.342 299.98C294.994 299.608 294.526 299.422 293.938 299.422C293.35 299.422 292.882 299.608 292.534 299.98C292.186 300.352 292.012 300.874 292.012 301.546V307H288.934V296.956H292.012V298.288C292.324 297.844 292.744 297.496 293.272 297.244C293.8 296.98 294.394 296.848 295.054 296.848ZM310.981 296.956V307H307.903V305.632C307.591 306.076 307.165 306.436 306.625 306.712C306.097 306.976 305.509 307.108 304.861 307.108C304.093 307.108 303.415 306.94 302.827 306.604C302.239 306.256 301.783 305.758 301.459 305.11C301.135 304.462 300.973 303.7 300.973 302.824V296.956H304.033V302.41C304.033 303.082 304.207 303.604 304.555 303.976C304.903 304.348 305.371 304.534 305.959 304.534C306.559 304.534 307.033 304.348 307.381 303.976C307.729 303.604 307.903 303.082 307.903 302.41V296.956H310.981ZM318.79 304.39V307H317.224C316.108 307 315.238 306.73 314.614 306.19C313.99 305.638 313.678 304.744 313.678 303.508V299.512H312.454V296.956H313.678V294.508H316.756V296.956H318.772V299.512H316.756V303.544C316.756 303.844 316.828 304.06 316.972 304.192C317.116 304.324 317.356 304.39 317.692 304.39H318.79ZM325.077 307.144C324.093 307.144 323.205 306.934 322.413 306.514C321.633 306.094 321.015 305.494 320.559 304.714C320.115 303.934 319.893 303.022 319.893 301.978C319.893 300.946 320.121 300.04 320.577 299.26C321.033 298.468 321.657 297.862 322.449 297.442C323.241 297.022 324.129 296.812 325.113 296.812C326.097 296.812 326.985 297.022 327.777 297.442C328.569 297.862 329.193 298.468 329.649 299.26C330.105 300.04 330.333 300.946 330.333 301.978C330.333 303.01 330.099 303.922 329.631 304.714C329.175 305.494 328.545 306.094 327.741 306.514C326.949 306.934 326.061 307.144 325.077 307.144ZM325.077 304.48C325.665 304.48 326.163 304.264 326.571 303.832C326.991 303.4 327.201 302.782 327.201 301.978C327.201 301.174 326.997 300.556 326.589 300.124C326.193 299.692 325.701 299.476 325.113 299.476C324.513 299.476 324.015 299.692 323.619 300.124C323.223 300.544 323.025 301.162 323.025 301.978C323.025 302.782 323.217 303.4 323.601 303.832C323.997 304.264 324.489 304.48 325.077 304.48ZM336.052 307.144C335.176 307.144 334.396 306.994 333.712 306.694C333.028 306.394 332.488 305.986 332.092 305.47C331.696 304.942 331.474 304.354 331.426 303.706H334.468C334.504 304.054 334.666 304.336 334.954 304.552C335.242 304.768 335.596 304.876 336.016 304.876C336.4 304.876 336.694 304.804 336.898 304.66C337.114 304.504 337.222 304.306 337.222 304.066C337.222 303.778 337.072 303.568 336.772 303.436C336.472 303.292 335.986 303.136 335.314 302.968C334.594 302.8 333.994 302.626 333.514 302.446C333.034 302.254 332.62 301.96 332.272 301.564C331.924 301.156 331.75 300.61 331.75 299.926C331.75 299.35 331.906 298.828 332.218 298.36C332.542 297.88 333.01 297.502 333.622 297.226C334.246 296.95 334.984 296.812 335.836 296.812C337.096 296.812 338.086 297.124 338.806 297.748C339.538 298.372 339.958 299.2 340.066 300.232H337.222C337.174 299.884 337.018 299.608 336.754 299.404C336.502 299.2 336.166 299.098 335.746 299.098C335.386 299.098 335.11 299.17 334.918 299.314C334.726 299.446 334.63 299.632 334.63 299.872C334.63 300.16 334.78 300.376 335.08 300.52C335.392 300.664 335.872 300.808 336.52 300.952C337.264 301.144 337.87 301.336 338.338 301.528C338.806 301.708 339.214 302.008 339.562 302.428C339.922 302.836 340.108 303.388 340.12 304.084C340.12 304.672 339.952 305.2 339.616 305.668C339.292 306.124 338.818 306.484 338.194 306.748C337.582 307.012 336.868 307.144 336.052 307.144ZM347.779 299.962C347.239 299.962 346.795 299.806 346.447 299.494C346.111 299.17 345.943 298.774 345.943 298.306C345.943 297.826 346.111 297.424 346.447 297.1C346.795 296.776 347.239 296.614 347.779 296.614C348.307 296.614 348.739 296.776 349.075 297.1C349.423 297.424 349.597 297.826 349.597 298.306C349.597 298.774 349.423 299.17 349.075 299.494C348.739 299.806 348.307 299.962 347.779 299.962ZM349.561 304.156L347.563 309.322H345.601L346.645 304.156H349.561ZM351.229 310.762V310.474C352.429 309.226 353.359 307.75 354.019 306.046C354.679 304.342 355.009 302.572 355.009 300.736C355.009 298.888 354.667 297.094 353.983 295.354C353.299 293.602 352.327 292.102 351.067 290.854V290.566H354.091C355.327 291.694 356.281 293.158 356.953 294.958C357.625 296.746 357.961 298.672 357.961 300.736C357.961 302.776 357.637 304.678 356.989 306.442C356.341 308.206 355.435 309.646 354.271 310.762H351.229Z" fill="#4ABBC2"/>
</svg>
